<svg xmlns="http://www.w3.org/2000/svg" width="24" height="24" viewBox="0 0 24 24" fill="none"><g transform="translate(-4,-130)"><circle cx="16" cy="142" r="9.27778" fill="#2A2A2A" stroke="#232323"/><path d="M10.4993 145.333V138.061H12.0369V144.066H15.1548V145.333H10.4993ZM18.8187 145.433C18.2884 145.433 17.8161 145.342 17.4018 145.159C16.9899 144.975 16.6643 144.721 16.4252 144.399C16.1885 144.075 16.0666 143.701 16.0595 143.277H17.6078C17.6172 143.455 17.6752 143.611 17.7818 143.746C17.8907 143.879 18.0351 143.982 18.215 144.055C18.3949 144.128 18.5973 144.165 18.8222 144.165C19.0566 144.165 19.2638 144.124 19.4437 144.041C19.6236 143.958 19.7645 143.843 19.8663 143.696C19.9681 143.549 20.019 143.38 20.019 143.188C20.019 142.994 19.9645 142.823 19.8556 142.674C19.7491 142.522 19.5952 142.404 19.394 142.318C19.1951 142.233 18.9584 142.191 18.6838 142.191H18.0055V141.061H18.6838C18.9158 141.061 19.1205 141.021 19.2981 140.941C19.478 140.86 19.6177 140.749 19.7171 140.607C19.8166 140.462 19.8663 140.294 19.8663 140.102C19.8663 139.92 19.8225 139.76 19.7349 139.623C19.6497 139.483 19.5289 139.375 19.3727 139.296C19.2188 139.218 19.0389 139.179 18.8329 139.179C18.6246 139.179 18.434 139.217 18.2612 139.293C18.0883 139.366 17.9498 139.472 17.8457 139.609C17.7415 139.746 17.6859 139.907 17.6788 140.092H16.2051C16.2122 139.673 16.3317 139.303 16.5637 138.984C16.7957 138.664 17.1082 138.415 17.5012 138.235C17.8966 138.052 18.3428 137.961 18.84 137.961C19.3419 137.961 19.7811 138.052 20.1575 138.235C20.5339 138.417 20.8263 138.663 21.0346 138.973C21.2453 139.281 21.3495 139.627 21.3471 140.01C21.3495 140.417 21.2228 140.757 20.9671 141.029C20.7138 141.302 20.3836 141.474 19.9764 141.548V141.605C20.5114 141.673 20.9186 141.859 21.198 142.162C21.4797 142.463 21.6194 142.839 21.617 143.291C21.6194 143.706 21.4998 144.074 21.2583 144.396C21.0192 144.718 20.689 144.971 20.2676 145.156C19.8462 145.34 19.3632 145.433 18.8187 145.433Z" fill="#FFFFFE"/></g></svg>
