<svg xmlns="http://www.w3.org/2000/svg" width="24" height="24" viewBox="0 0 24 24" fill="none"><g transform="translate(-4,-130)">
<circle cx="16" cy="142" r="9.28" fill="#2A2A2A" stroke="#232323"/>
<path d="M10.5 145.33V138.06H12.04V144.07H15.15V145.33H10.5ZM18.82 145.43C18.29 145.43 17.82 145.34 17.4 145.16C16.99 144.97 16.66 144.72 16.43 144.4C16.19 144.07 16.07 143.7 16.06 143.28H17.61C17.62 143.46 17.68 143.61 17.78 143.75C17.89 143.88 18.04 143.98 18.21 144.06C18.39 144.13 18.6 144.16 18.82 144.16C19.06 144.16 19.26 144.12 19.44 144.04C19.62 143.96 19.76 143.84 19.87 143.7C19.97 143.55 20.02 143.38 20.02 143.19C20.02 142.99 19.96 142.82 19.86 142.67C19.75 142.52 19.6 142.4 19.39 142.32C19.2 142.23 18.96 142.19 18.68 142.19H18.01V141.06H18.68C18.92 141.06 19.12 141.02 19.3 140.94C19.48 140.86 19.62 140.75 19.72 140.61C19.82 140.46 19.87 140.29 19.87 140.1C19.87 139.92 19.82 139.76 19.73 139.62C19.65 139.48 19.53 139.38 19.37 139.3C19.22 139.22 19.04 139.18 18.83 139.18C18.62 139.18 18.43 139.22 18.26 139.29C18.09 139.37 17.95 139.47 17.85 139.61C17.74 139.75 17.69 139.91 17.68 140.09H16.21C16.21 139.67 16.33 139.3 16.56 138.98C16.8 138.66 17.11 138.41 17.5 138.24C17.9 138.05 18.34 137.96 18.84 137.96C19.34 137.96 19.78 138.05 20.16 138.24C20.53 138.42 20.83 138.66 21.03 138.97C21.25 139.28 21.35 139.63 21.35 140.01C21.35 140.42 21.22 140.76 20.97 141.03C20.71 141.3 20.38 141.47 19.98 141.55V141.6C20.51 141.67 20.92 141.86 21.2 142.16C21.48 142.46 21.62 142.84 21.62 143.29C21.62 143.71 21.5 144.07 21.26 144.4C21.02 144.72 20.69 144.97 20.27 145.16C19.85 145.34 19.36 145.43 18.82 145.43Z" fill="#FFFFFE"/>
</g></svg>
