<?xml version="1.0" encoding="UTF-8"?>
<svg xmlns="http://www.w3.org/2000/svg" width="32" height="32" viewBox="0 0 32.000000 32.000000" fill="none"><g transform="translate(-0.000000,-546.000000)">
<mask id="path-117-outside-7_401_4614" maskUnits="userSpaceOnUse" x="5" y="549" width="23" height="17" fill="black">
<rect fill="white" x="5" y="549" width="23" height="17" />
<path d="M6.1 564V550.91H8.87V561.72H14.48V564H6.1ZM21.07 564.18C20.12 564.18 19.27 564.01 18.52 563.69C17.78 563.35 17.2 562.9 16.77 562.32C16.34 561.74 16.12 561.06 16.11 560.3H18.89C18.91 560.62 19.02 560.9 19.21 561.14C19.4 561.38 19.66 561.57 19.99 561.7C20.31 561.83 20.68 561.9 21.08 561.9C21.5 561.9 21.87 561.82 22.2 561.67C22.52 561.52 22.78 561.32 22.96 561.05C23.14 560.79 23.23 560.48 23.23 560.14C23.23 559.79 23.14 559.48 22.94 559.21C22.75 558.94 22.47 558.73 22.11 558.57C21.75 558.42 21.33 558.34 20.83 558.34H19.61V556.31H20.83C21.25 556.31 21.62 556.24 21.94 556.09C22.26 555.95 22.51 555.75 22.69 555.49C22.87 555.23 22.96 554.93 22.96 554.59C22.96 554.26 22.88 553.97 22.72 553.72C22.57 553.47 22.35 553.27 22.07 553.13C21.79 552.99 21.47 552.92 21.1 552.92C20.72 552.92 20.38 552.99 20.07 553.13C19.76 553.26 19.51 553.45 19.32 553.7C19.13 553.94 19.03 554.23 19.02 554.57H16.37C16.38 553.81 16.6 553.15 17.01 552.57C17.43 552 17.99 551.55 18.7 551.22C19.41 550.89 20.22 550.73 21.11 550.73C22.02 550.73 22.81 550.89 23.48 551.22C24.16 551.55 24.69 551.99 25.06 552.55C25.44 553.11 25.63 553.73 25.62 554.42C25.63 555.15 25.4 555.76 24.94 556.25C24.48 556.74 23.89 557.05 23.16 557.19V557.29C24.12 557.41 24.85 557.75 25.36 558.29C25.86 558.83 26.11 559.51 26.11 560.33C26.11 561.07 25.9 561.73 25.46 562.31C25.03 562.89 24.44 563.35 23.68 563.68C22.92 564.01 22.05 564.18 21.07 564.18Z" />
</mask>
<path d="M6.1 564V550.91H8.87V561.72H14.48V564H6.1ZM21.07 564.18C20.12 564.18 19.27 564.01 18.52 563.69C17.78 563.35 17.2 562.9 16.77 562.32C16.34 561.74 16.12 561.06 16.11 560.3H18.89C18.91 560.62 19.02 560.9 19.21 561.14C19.4 561.38 19.66 561.57 19.99 561.7C20.31 561.83 20.68 561.9 21.08 561.9C21.5 561.9 21.87 561.82 22.2 561.67C22.52 561.52 22.78 561.32 22.96 561.05C23.14 560.79 23.23 560.48 23.23 560.14C23.23 559.79 23.14 559.48 22.94 559.21C22.75 558.94 22.47 558.73 22.11 558.57C21.75 558.42 21.33 558.34 20.83 558.34H19.61V556.31H20.83C21.25 556.31 21.62 556.24 21.94 556.09C22.26 555.95 22.51 555.75 22.69 555.49C22.87 555.23 22.96 554.93 22.96 554.59C22.96 554.26 22.88 553.97 22.72 553.72C22.57 553.47 22.35 553.27 22.07 553.13C21.79 552.99 21.47 552.92 21.1 552.92C20.72 552.92 20.38 552.99 20.07 553.13C19.76 553.26 19.51 553.45 19.32 553.7C19.13 553.94 19.03 554.23 19.02 554.57H16.37C16.38 553.81 16.6 553.15 17.01 552.57C17.43 552 17.99 551.55 18.7 551.22C19.41 550.89 20.22 550.73 21.11 550.73C22.02 550.73 22.81 550.89 23.48 551.22C24.16 551.55 24.69 551.99 25.06 552.55C25.44 553.11 25.63 553.73 25.62 554.42C25.63 555.15 25.4 555.76 24.94 556.25C24.48 556.74 23.89 557.05 23.16 557.19V557.29C24.12 557.41 24.85 557.75 25.36 558.29C25.86 558.83 26.11 559.51 26.11 560.33C26.11 561.07 25.9 561.73 25.46 562.31C25.03 562.89 24.44 563.35 23.68 563.68C22.92 564.01 22.05 564.18 21.07 564.18Z" fill="#2A2A2A" />
<path d="M6.1 564H5.1C5.1 564.55 5.55 565 6.1 565V564ZM6.1 550.91V549.91C5.55 549.91 5.1 550.36 5.1 550.91H6.1ZM8.87 550.91H9.87C9.87 550.36 9.42 549.91 8.87 549.91V550.91ZM8.87 561.72H7.87C7.87 562.27 8.31 562.72 8.87 562.72V561.72ZM14.48 561.72H15.48C15.48 561.17 15.03 560.72 14.48 560.72V561.72ZM14.48 564V565C15.03 565 15.48 564.55 15.48 564H14.48ZM7.1 564V550.91H5.1V564H7.1ZM6.1 551.91H8.87V549.91H6.1V551.91ZM7.87 550.91V561.72H9.87V550.91H7.87ZM8.87 562.72H14.48V560.72H8.87V562.72ZM13.48 561.72V564H15.48V561.72H13.48ZM14.48 563H6.1V565H14.48V563ZM18.52 563.69L18.11 564.6L18.12 564.6L18.52 563.69ZM16.77 562.32L15.96 562.91L15.96 562.91L16.77 562.32ZM16.11 560.3V559.3C15.84 559.3 15.58 559.41 15.39 559.6C15.21 559.79 15.1 560.05 15.11 560.32L16.11 560.3ZM18.89 560.3L19.89 560.25C19.86 559.72 19.43 559.3 18.89 559.3V560.3ZM19.21 561.14L18.42 561.76C18.43 561.77 18.43 561.77 18.43 561.78L19.21 561.14ZM19.99 561.7L19.61 562.62L19.61 562.62L19.99 561.7ZM22.2 561.67L21.78 560.76L21.78 560.76L22.2 561.67ZM22.96 561.05L23.78 561.62L23.78 561.62L22.96 561.05ZM22.94 559.21L22.12 559.79C22.13 559.79 22.13 559.8 22.13 559.8L22.94 559.21ZM22.11 558.57L21.72 559.49L21.72 559.49L22.11 558.57ZM19.61 558.34H18.61C18.61 558.89 19.06 559.34 19.61 559.34V558.34ZM19.61 556.31V555.31C19.06 555.31 18.61 555.76 18.61 556.31H19.61ZM21.94 556.09L21.53 555.18L21.52 555.18L21.94 556.09ZM22.69 555.49L23.51 556.07L23.51 556.06L22.69 555.49ZM22.72 553.72L21.87 554.24C21.87 554.25 21.88 554.25 21.88 554.26L22.72 553.72ZM22.07 553.13L21.62 554.02L21.62 554.03L22.07 553.13ZM20.07 553.13L20.46 554.05L20.47 554.04L20.07 553.13ZM19.32 553.7L20.12 554.3L20.12 554.3L19.32 553.7ZM19.02 554.57V555.57C19.56 555.57 20 555.14 20.02 554.6L19.02 554.57ZM16.37 554.57L15.37 554.55C15.36 554.82 15.47 555.08 15.66 555.27C15.84 555.46 16.1 555.57 16.37 555.57V554.57ZM17.01 552.57L17.82 553.16L17.82 553.16L17.01 552.57ZM18.7 551.22L19.12 552.13L19.12 552.13L18.7 551.22ZM23.48 551.22L23.92 550.32L23.92 550.32L23.48 551.22ZM25.06 552.55L24.23 553.11L24.24 553.12L25.06 552.55ZM25.62 554.42L24.62 554.41L24.62 554.42L25.62 554.42ZM24.94 556.25L24.21 555.57L24.21 555.57L24.94 556.25ZM23.16 557.19L22.98 556.2C22.5 556.29 22.16 556.7 22.16 557.19H23.16ZM23.16 557.29H22.16C22.16 557.79 22.53 558.22 23.03 558.28L23.16 557.29ZM25.36 558.29L24.62 558.97L24.63 558.98L25.36 558.29ZM26.11 560.33L25.11 560.32L25.11 560.33L26.11 560.33ZM25.46 562.31L24.66 561.71L24.66 561.72L25.46 562.31ZM23.68 563.68L23.28 562.76L23.28 562.76L23.68 563.68ZM21.07 563.18C20.23 563.18 19.52 563.03 18.93 562.77L18.12 564.6C19.01 565 20 565.18 21.07 565.18V563.18ZM18.93 562.77C18.33 562.5 17.88 562.15 17.57 561.72L15.96 562.91C16.51 563.65 17.24 564.21 18.11 564.6L18.93 562.77ZM17.57 561.73C17.28 561.32 17.12 560.85 17.11 560.28L15.11 560.32C15.12 561.27 15.4 562.15 15.96 562.91L17.57 561.73ZM16.11 561.3H18.89V559.3H16.11V561.3ZM17.9 560.35C17.92 560.87 18.1 561.35 18.42 561.76L19.99 560.52C19.93 560.45 19.9 560.37 19.89 560.25L17.9 560.35ZM18.43 561.78C18.75 562.16 19.15 562.44 19.61 562.62L20.36 560.77C20.17 560.7 20.06 560.6 19.98 560.51L18.43 561.78ZM19.61 562.62C20.07 562.81 20.57 562.9 21.08 562.9V560.9C20.78 560.9 20.55 560.85 20.36 560.77L19.61 562.62ZM21.08 562.9C21.62 562.9 22.14 562.8 22.62 562.58L21.78 560.76C21.61 560.84 21.38 560.9 21.08 560.9V562.9ZM22.62 562.58C23.09 562.37 23.49 562.05 23.78 561.62L22.14 560.48C22.07 560.59 21.96 560.68 21.78 560.76L22.62 562.58ZM23.78 561.62C24.09 561.18 24.23 560.67 24.23 560.14H22.23C22.23 560.3 22.2 560.4 22.14 560.48L23.78 561.62ZM24.23 560.14C24.23 559.59 24.08 559.07 23.75 558.62L22.13 559.8C22.2 559.89 22.23 559.99 22.23 560.14H24.23ZM23.76 558.64C23.44 558.19 23 557.87 22.5 557.65L21.72 559.49C21.94 559.59 22.06 559.69 22.12 559.79L23.76 558.64ZM22.5 557.65C21.99 557.43 21.43 557.34 20.83 557.34V559.34C21.22 559.34 21.51 559.4 21.72 559.49L22.5 557.65ZM20.83 557.34H19.61V559.34H20.83V557.34ZM20.61 558.34V556.31H18.61V558.34H20.61ZM19.61 557.31H20.83V555.31H19.61V557.31ZM20.83 557.31C21.36 557.31 21.88 557.22 22.35 557L21.52 555.18C21.36 555.26 21.13 555.31 20.83 555.31V557.31ZM22.34 557.01C22.81 556.8 23.21 556.49 23.51 556.07L21.87 554.92C21.81 555.01 21.71 555.1 21.53 555.18L22.34 557.01ZM23.51 556.06C23.82 555.62 23.96 555.11 23.96 554.59H21.96C21.96 554.75 21.92 554.85 21.87 554.92L23.51 556.06ZM23.96 554.59C23.96 554.09 23.84 553.61 23.57 553.18L21.88 554.26C21.92 554.33 21.96 554.42 21.96 554.59H23.96ZM23.58 553.2C23.32 552.78 22.96 552.46 22.52 552.24L21.62 554.03C21.75 554.09 21.82 554.16 21.87 554.24L23.58 553.2ZM22.52 552.24C22.08 552.02 21.6 551.92 21.1 551.92V553.92C21.34 553.92 21.51 553.97 21.62 554.02L22.52 552.24ZM21.1 551.92C20.6 551.92 20.12 552.01 19.67 552.21L20.47 554.04C20.64 553.97 20.85 553.92 21.1 553.92V551.92ZM19.68 552.21C19.22 552.4 18.83 552.69 18.53 553.09L20.12 554.3C20.19 554.2 20.3 554.12 20.46 554.05L19.68 552.21ZM18.53 553.09C18.2 553.51 18.04 554 18.02 554.53L20.02 554.6C20.03 554.46 20.06 554.37 20.12 554.3L18.53 553.09ZM19.02 553.57H16.37V555.57H19.02V553.57ZM17.37 554.58C17.38 554.02 17.53 553.56 17.82 553.16L16.21 551.98C15.66 552.74 15.39 553.6 15.37 554.55L17.37 554.58ZM17.82 553.16C18.13 552.74 18.55 552.39 19.12 552.13L18.29 550.31C17.44 550.7 16.73 551.26 16.21 551.98L17.82 553.16ZM19.12 552.13C19.68 551.87 20.34 551.73 21.11 551.73V549.73C20.09 549.73 19.14 549.92 18.28 550.31L19.12 552.13ZM21.11 551.73C21.89 551.73 22.53 551.87 23.05 552.12L23.92 550.32C23.08 549.92 22.14 549.73 21.11 549.73V551.73ZM23.05 552.12C23.59 552.38 23.97 552.72 24.23 553.11L25.89 551.99C25.41 551.27 24.74 550.72 23.92 550.32L23.05 552.12ZM24.24 553.12C24.5 553.5 24.63 553.92 24.62 554.41L26.62 554.42C26.63 553.54 26.39 552.71 25.89 551.99L24.24 553.12ZM24.62 554.42C24.63 554.93 24.48 555.28 24.21 555.57L25.67 556.94C26.32 556.24 26.63 555.38 26.62 554.41L24.62 554.42ZM24.21 555.57C23.92 555.89 23.53 556.1 22.98 556.2L23.33 558.17C24.26 558 25.05 557.6 25.67 556.93L24.21 555.57ZM22.16 557.19V557.29H24.16V557.19H22.16ZM23.03 558.28C23.83 558.38 24.32 558.64 24.62 558.97L26.09 557.61C25.39 556.85 24.41 556.44 23.28 556.3L23.03 558.28ZM24.63 558.98C24.94 559.31 25.11 559.73 25.11 560.32L27.11 560.33C27.12 559.29 26.79 558.36 26.09 557.61L24.63 558.98ZM25.11 560.33C25.11 560.87 24.96 561.31 24.66 561.71L26.27 562.91C26.83 562.15 27.12 561.28 27.11 560.32L25.11 560.33ZM24.66 561.72C24.35 562.14 23.9 562.49 23.28 562.76L24.08 564.6C24.98 564.21 25.72 563.65 26.27 562.91L24.66 561.72ZM23.28 562.76C22.67 563.03 21.94 563.18 21.07 563.18V565.18C22.17 565.18 23.18 564.99 24.08 564.6L23.28 562.76Z" fill="#FFFFFE" mask="url(#path-117-outside-7_401_4614)" />
<mask id="path-119-inside-8_401_4614" fill="white">
<path fill-rule="evenodd" clip-rule="evenodd" d="M3.56 565.56C1.59 565.56 0 567.15 0 569.11C0 571.08 1.59 572.67 3.56 572.67H8.89V578H23.11V572.67H28.44C30.41 572.67 32 571.08 32 569.11C32 567.15 30.41 565.56 28.44 565.56H3.56Z" />
</mask>
<path fill-rule="evenodd" clip-rule="evenodd" d="M3.56 565.56C1.59 565.56 0 567.15 0 569.11C0 571.08 1.59 572.67 3.56 572.67H8.89V578H23.11V572.67H28.44C30.41 572.67 32 571.08 32 569.11C32 567.15 30.41 565.56 28.44 565.56H3.56Z" fill="#2A2A2A" />
<path d="M8.89 572.67H9.89V571.67H8.89V572.67ZM8.89 578H7.89V579H8.89V578ZM23.11 578V579H24.11V578H23.11ZM23.11 572.67V571.67H22.11V572.67H23.11ZM1 569.11C1 567.7 2.14 566.56 3.56 566.56V564.56C1.04 564.56 -1 566.6 -1 569.11H1ZM3.56 571.67C2.14 571.67 1 570.52 1 569.11H-1C-1 571.63 1.04 573.67 3.56 573.67V571.67ZM8.89 571.67H3.56V573.67H8.89V571.67ZM9.89 578V572.67H7.89V578H9.89ZM23.11 577H8.89V579H23.11V577ZM22.11 572.67V578H24.11V572.67H22.11ZM28.44 571.67H23.11V573.67H28.44V571.67ZM31 569.11C31 570.52 29.86 571.67 28.44 571.67V573.67C30.96 573.67 33 571.63 33 569.11H31ZM28.44 566.56C29.86 566.56 31 567.7 31 569.11H33C33 566.6 30.96 564.56 28.44 564.56V566.56ZM3.56 566.56H28.44V564.56H3.56V566.56Z" fill="#232323" mask="url(#path-119-inside-8_401_4614)" />
<path d="M23.11 568.22H8.89L16 573.56L23.11 568.22Z" fill="#FFFFFE" />
</g></svg>