<?xml version="1.0" encoding="UTF-8"?>
<svg xmlns="http://www.w3.org/2000/svg" width="32" height="32" viewBox="0 0 32.000000 32.000000" fill="none"><g transform="translate(-0.000000,-630.000000)">
<rect x="12.97" y="645.09" width="6.06" height="13.12" rx="3.03" fill="#2A2A2A" stroke="#232323" />
<mask id="path-27-outside-1_401_4614" maskUnits="userSpaceOnUse" x="0" y="634" width="32" height="9" fill="black">
<rect fill="white" y="634" width="32" height="9" />
<path d="M6.5 638.46C6.5 639 6.4 639.47 6.19 639.86C5.99 640.25 5.71 640.55 5.36 640.76C5 640.97 4.61 641.07 4.16 641.07C3.71 641.07 3.32 640.97 2.96 640.76C2.61 640.55 2.33 640.25 2.13 639.86C1.92 639.47 1.82 639 1.82 638.46C1.82 637.91 1.92 637.44 2.13 637.05C2.33 636.66 2.61 636.36 2.96 636.15C3.32 635.94 3.71 635.84 4.16 635.84C4.61 635.84 5 635.94 5.36 636.15C5.71 636.36 5.99 636.66 6.19 637.05C6.4 637.44 6.5 637.91 6.5 638.46ZM5.57 638.46C5.57 638.07 5.51 637.74 5.39 637.48C5.27 637.21 5.11 637.01 4.89 636.87C4.68 636.74 4.44 636.67 4.16 636.67C3.88 636.67 3.64 636.74 3.43 636.87C3.22 637.01 3.05 637.21 2.93 637.48C2.81 637.74 2.75 638.07 2.75 638.46C2.75 638.84 2.81 639.17 2.93 639.43C3.05 639.7 3.22 639.9 3.43 640.04C3.64 640.17 3.88 640.24 4.16 640.24C4.44 640.24 4.68 640.17 4.89 640.04C5.11 639.9 5.27 639.7 5.39 639.43C5.51 639.17 5.57 638.84 5.57 638.46ZM6.95 641V635.91H8.86C9.25 635.91 9.58 635.98 9.84 636.13C10.11 636.27 10.31 636.47 10.45 636.73C10.59 636.98 10.66 637.27 10.66 637.59C10.66 637.92 10.59 638.21 10.45 638.46C10.31 638.72 10.11 638.92 9.84 639.06C9.57 639.21 9.24 639.28 8.85 639.28H7.58V638.52H8.72C8.95 638.52 9.14 638.48 9.29 638.4C9.43 638.32 9.54 638.21 9.61 638.07C9.68 637.93 9.72 637.77 9.72 637.59C9.72 637.41 9.68 637.25 9.61 637.12C9.54 636.98 9.43 636.87 9.28 636.8C9.14 636.72 8.95 636.68 8.72 636.68H7.87V641H6.95ZM10.81 636.68V635.91H14.87V636.68H13.3V641H12.39V636.68H10.81ZM16.16 635.91V641H15.24V635.91H16.16ZM21.29 638.46C21.29 639 21.18 639.47 20.98 639.86C20.78 640.25 20.5 640.55 20.14 640.76C19.79 640.97 19.39 641.07 18.95 641.07C18.5 641.07 18.1 640.97 17.75 640.76C17.4 640.55 17.12 640.25 16.91 639.86C16.71 639.47 16.61 639 16.61 638.46C16.61 637.91 16.71 637.44 16.91 637.05C17.12 636.66 17.4 636.36 17.75 636.15C18.1 635.94 18.5 635.84 18.95 635.84C19.39 635.84 19.79 635.94 20.14 636.15C20.5 636.36 20.78 636.66 20.98 637.05C21.18 637.44 21.29 637.91 21.29 638.46ZM20.36 638.46C20.36 638.07 20.3 637.74 20.18 637.48C20.06 637.21 19.89 637.01 19.68 636.87C19.47 636.74 19.23 636.67 18.95 636.67C18.67 636.67 18.43 636.74 18.21 636.87C18 637.01 17.84 637.21 17.72 637.48C17.6 637.74 17.54 638.07 17.54 638.46C17.54 638.84 17.6 639.17 17.72 639.43C17.84 639.7 18 639.9 18.21 640.04C18.43 640.17 18.67 640.24 18.95 640.24C19.23 640.24 19.47 640.17 19.68 640.04C19.89 639.9 20.06 639.7 20.18 639.43C20.3 639.17 20.36 638.84 20.36 638.46ZM25.92 635.91V641H25.1L22.7 637.53H22.66V641H21.74V635.91H22.56L24.96 639.38H25.01V635.91H25.92ZM29.27 637.31C29.25 637.09 29.15 636.92 28.98 636.8C28.81 636.68 28.59 636.62 28.31 636.62C28.12 636.62 27.96 636.65 27.82 636.71C27.68 636.76 27.58 636.84 27.5 636.94C27.43 637.04 27.39 637.16 27.39 637.28C27.39 637.39 27.42 637.48 27.46 637.56C27.51 637.64 27.58 637.7 27.67 637.76C27.75 637.81 27.84 637.86 27.95 637.89C28.05 637.93 28.15 637.96 28.26 637.99L28.73 638.1C28.93 638.15 29.11 638.21 29.29 638.29C29.47 638.36 29.63 638.46 29.77 638.57C29.91 638.69 30.02 638.83 30.11 638.99C30.19 639.16 30.23 639.35 30.23 639.57C30.23 639.87 30.16 640.13 30 640.36C29.85 640.58 29.63 640.76 29.34 640.89C29.05 641.01 28.71 641.08 28.3 641.08C27.9 641.08 27.56 641.02 27.27 640.89C26.98 640.77 26.75 640.59 26.59 640.36C26.42 640.12 26.34 639.83 26.32 639.5H27.23C27.24 639.67 27.3 639.82 27.4 639.94C27.49 640.06 27.62 640.14 27.77 640.2C27.93 640.26 28.1 640.29 28.29 640.29C28.49 640.29 28.67 640.26 28.82 640.2C28.97 640.14 29.09 640.05 29.18 639.95C29.26 639.84 29.31 639.71 29.31 639.56C29.31 639.43 29.27 639.32 29.19 639.24C29.12 639.15 29.01 639.07 28.87 639.02C28.74 638.96 28.58 638.9 28.39 638.86L27.82 638.71C27.4 638.6 27.06 638.44 26.82 638.22C26.58 638 26.46 637.71 26.46 637.34C26.46 637.04 26.54 636.78 26.7 636.55C26.87 636.33 27.09 636.15 27.37 636.03C27.65 635.9 27.97 635.84 28.33 635.84C28.69 635.84 29.01 635.9 29.28 636.03C29.55 636.15 29.77 636.33 29.92 636.55C30.08 636.77 30.16 637.02 30.16 637.31H29.27Z" />
</mask>
<path d="M6.5 638.46C6.5 639 6.4 639.47 6.19 639.86C5.99 640.25 5.71 640.55 5.36 640.76C5 640.97 4.61 641.07 4.16 641.07C3.71 641.07 3.32 640.97 2.96 640.76C2.61 640.55 2.33 640.25 2.13 639.86C1.92 639.47 1.82 639 1.82 638.46C1.82 637.91 1.92 637.44 2.13 637.05C2.33 636.66 2.61 636.36 2.96 636.15C3.32 635.94 3.71 635.84 4.16 635.84C4.61 635.84 5 635.94 5.36 636.15C5.71 636.36 5.99 636.66 6.19 637.05C6.4 637.44 6.5 637.91 6.5 638.46ZM5.57 638.46C5.57 638.07 5.51 637.74 5.39 637.48C5.27 637.21 5.11 637.01 4.89 636.87C4.68 636.74 4.44 636.67 4.16 636.67C3.88 636.67 3.64 636.74 3.43 636.87C3.22 637.01 3.05 637.21 2.93 637.48C2.81 637.74 2.75 638.07 2.75 638.46C2.75 638.84 2.81 639.17 2.93 639.43C3.05 639.7 3.22 639.9 3.43 640.04C3.64 640.17 3.88 640.24 4.16 640.24C4.44 640.24 4.68 640.17 4.89 640.04C5.11 639.9 5.27 639.7 5.39 639.43C5.51 639.17 5.57 638.84 5.57 638.46ZM6.95 641V635.91H8.86C9.25 635.91 9.58 635.98 9.84 636.13C10.11 636.27 10.31 636.47 10.45 636.73C10.59 636.98 10.66 637.27 10.66 637.59C10.66 637.92 10.59 638.21 10.45 638.46C10.31 638.72 10.11 638.92 9.84 639.06C9.57 639.21 9.24 639.28 8.85 639.28H7.58V638.52H8.72C8.95 638.52 9.14 638.48 9.29 638.4C9.43 638.32 9.54 638.21 9.61 638.07C9.68 637.93 9.72 637.77 9.72 637.59C9.72 637.41 9.68 637.25 9.61 637.12C9.54 636.98 9.43 636.87 9.28 636.8C9.14 636.72 8.95 636.68 8.72 636.68H7.87V641H6.95ZM10.81 636.68V635.91H14.87V636.68H13.3V641H12.39V636.68H10.81ZM16.16 635.91V641H15.24V635.91H16.16ZM21.29 638.46C21.29 639 21.18 639.47 20.98 639.86C20.78 640.25 20.5 640.55 20.14 640.76C19.79 640.97 19.39 641.07 18.95 641.07C18.5 641.07 18.1 640.97 17.75 640.76C17.4 640.55 17.12 640.25 16.91 639.86C16.71 639.47 16.61 639 16.61 638.46C16.61 637.91 16.71 637.44 16.91 637.05C17.12 636.66 17.4 636.36 17.75 636.15C18.1 635.94 18.5 635.84 18.95 635.84C19.39 635.84 19.79 635.94 20.14 636.15C20.5 636.36 20.78 636.66 20.98 637.05C21.18 637.44 21.29 637.91 21.29 638.46ZM20.36 638.46C20.36 638.07 20.3 637.74 20.18 637.48C20.06 637.21 19.89 637.01 19.68 636.87C19.47 636.74 19.23 636.67 18.95 636.67C18.67 636.67 18.43 636.74 18.21 636.87C18 637.01 17.84 637.21 17.72 637.48C17.6 637.74 17.54 638.07 17.54 638.46C17.54 638.84 17.6 639.17 17.72 639.43C17.84 639.7 18 639.9 18.21 640.04C18.43 640.17 18.67 640.24 18.95 640.24C19.23 640.24 19.47 640.17 19.68 640.04C19.89 639.9 20.06 639.7 20.18 639.43C20.3 639.17 20.36 638.84 20.36 638.46ZM25.92 635.91V641H25.1L22.7 637.53H22.66V641H21.74V635.91H22.56L24.96 639.38H25.01V635.91H25.92ZM29.27 637.31C29.25 637.09 29.15 636.92 28.98 636.8C28.81 636.68 28.59 636.62 28.31 636.62C28.12 636.62 27.96 636.65 27.82 636.71C27.68 636.76 27.58 636.84 27.5 636.94C27.43 637.04 27.39 637.16 27.39 637.28C27.39 637.39 27.42 637.48 27.46 637.56C27.51 637.64 27.58 637.7 27.67 637.76C27.75 637.81 27.84 637.86 27.95 637.89C28.05 637.93 28.15 637.96 28.26 637.99L28.73 638.1C28.93 638.15 29.11 638.21 29.29 638.29C29.47 638.36 29.63 638.46 29.77 638.57C29.91 638.69 30.02 638.83 30.11 638.99C30.19 639.16 30.23 639.35 30.23 639.57C30.23 639.87 30.16 640.13 30 640.36C29.85 640.58 29.63 640.76 29.34 640.89C29.05 641.01 28.71 641.08 28.3 641.08C27.9 641.08 27.56 641.02 27.27 640.89C26.98 640.77 26.75 640.59 26.59 640.36C26.42 640.12 26.34 639.83 26.32 639.5H27.23C27.24 639.67 27.3 639.82 27.4 639.94C27.49 640.06 27.62 640.14 27.77 640.2C27.93 640.26 28.1 640.29 28.29 640.29C28.49 640.29 28.67 640.26 28.82 640.2C28.97 640.14 29.09 640.05 29.18 639.95C29.26 639.84 29.31 639.71 29.31 639.56C29.31 639.43 29.27 639.32 29.19 639.24C29.12 639.15 29.01 639.07 28.87 639.02C28.74 638.96 28.58 638.9 28.39 638.86L27.82 638.71C27.4 638.6 27.06 638.44 26.82 638.22C26.58 638 26.46 637.71 26.46 637.34C26.46 637.04 26.54 636.78 26.7 636.55C26.87 636.33 27.09 636.15 27.37 636.03C27.65 635.9 27.97 635.84 28.33 635.84C28.69 635.84 29.01 635.9 29.28 636.03C29.55 636.15 29.77 636.33 29.92 636.55C30.08 636.77 30.16 637.02 30.16 637.31H29.27Z" fill="#FFFFFE" />
<path d="M6.19 639.86L5.31 639.4L5.31 639.4L6.19 639.86ZM5.36 640.76L4.85 639.9L4.85 639.9L5.36 640.76ZM2.96 640.76L2.45 641.62L2.46 641.62L2.96 640.76ZM2.13 639.86L1.24 640.32L1.24 640.33L2.13 639.86ZM2.13 637.05L1.24 636.58L1.24 636.58L2.13 637.05ZM2.96 636.15L2.46 635.29L2.45 635.29L2.96 636.15ZM5.36 636.15L4.85 637.01L4.85 637.01L5.36 636.15ZM6.19 637.05L5.3 637.51L5.31 637.51L6.19 637.05ZM5.39 637.48L4.48 637.89L4.48 637.89L5.39 637.48ZM4.89 636.87L4.35 637.71L4.35 637.72L4.89 636.87ZM3.43 636.87L3.97 637.72L3.97 637.71L3.43 636.87ZM2.93 637.48L2.02 637.07L2.02 637.07L2.93 637.48ZM2.93 639.43L2.01 639.84L2.02 639.85L2.93 639.43ZM3.43 640.04L2.88 640.88L2.89 640.88L3.43 640.04ZM4.89 640.04L5.43 640.88L5.44 640.88L4.89 640.04ZM5.39 639.43L4.48 639.02L4.48 639.02L5.39 639.43ZM5.5 638.46C5.5 638.88 5.42 639.18 5.31 639.4L7.08 640.33C7.37 639.76 7.5 639.13 7.5 638.46H5.5ZM5.31 639.4C5.18 639.64 5.03 639.79 4.85 639.9L5.86 641.62C6.39 641.31 6.79 640.87 7.08 640.33L5.31 639.4ZM4.85 639.9C4.66 640.01 4.44 640.07 4.16 640.07V642.07C4.77 642.07 5.34 641.93 5.86 641.62L4.85 639.9ZM4.16 640.07C3.88 640.07 3.65 640.01 3.47 639.9L2.46 641.62C2.98 641.93 3.55 642.07 4.16 642.07V640.07ZM3.47 639.9C3.29 639.79 3.14 639.63 3.01 639.39L1.24 640.33C1.53 640.87 1.93 641.31 2.45 641.62L3.47 639.9ZM3.01 639.4C2.9 639.18 2.82 638.88 2.82 638.46H0.82C0.82 639.12 0.95 639.76 1.24 640.32L3.01 639.4ZM2.82 638.46C2.82 638.03 2.9 637.73 3.01 637.51L1.24 636.58C0.95 637.15 0.82 637.78 0.82 638.46H2.82ZM3.01 637.51C3.14 637.27 3.29 637.12 3.47 637.01L2.45 635.29C1.93 635.6 1.53 636.04 1.24 636.58L3.01 637.51ZM3.47 637.01C3.65 636.9 3.88 636.84 4.16 636.84V634.84C3.55 634.84 2.98 634.98 2.46 635.29L3.47 637.01ZM4.16 636.84C4.44 636.84 4.66 636.9 4.85 637.01L5.86 635.29C5.34 634.98 4.77 634.84 4.16 634.84V636.84ZM4.85 637.01C5.03 637.12 5.18 637.27 5.3 637.51L7.08 636.59C6.79 636.04 6.39 635.6 5.86 635.29L4.85 637.01ZM5.31 637.51C5.42 637.73 5.5 638.03 5.5 638.46H7.5C7.5 637.78 7.37 637.14 7.08 636.58L5.31 637.51ZM6.57 638.46C6.57 637.97 6.5 637.49 6.3 637.06L4.48 637.89C4.53 637.99 4.57 638.17 4.57 638.46H6.57ZM6.3 637.07C6.12 636.65 5.83 636.29 5.43 636.03L4.35 637.72C4.38 637.73 4.43 637.77 4.48 637.89L6.3 637.07ZM5.44 636.03C5.05 635.78 4.61 635.67 4.16 635.67V637.67C4.26 637.67 4.31 637.69 4.35 637.71L5.44 636.03ZM4.16 635.67C3.71 635.67 3.27 635.78 2.88 636.03L3.97 637.71C4.01 637.69 4.06 637.67 4.16 637.67V635.67ZM2.89 636.03C2.49 636.29 2.2 636.65 2.02 637.07L3.84 637.89C3.89 637.77 3.94 637.73 3.97 637.72L2.89 636.03ZM2.02 637.07C1.82 637.5 1.75 637.97 1.75 638.46H3.75C3.75 638.17 3.79 637.99 3.84 637.89L2.02 637.07ZM1.75 638.46C1.75 638.94 1.82 639.41 2.01 639.84L3.84 639.03C3.79 638.92 3.75 638.74 3.75 638.46H1.75ZM2.02 639.85C2.21 640.26 2.49 640.62 2.88 640.88L3.97 639.2C3.94 639.18 3.89 639.14 3.84 639.02L2.02 639.85ZM2.89 640.88C3.28 641.13 3.71 641.24 4.16 641.24V639.24C4.06 639.24 4 639.22 3.97 639.2L2.89 640.88ZM4.16 641.24C4.61 641.24 5.04 641.13 5.43 640.88L4.35 639.2C4.32 639.22 4.27 639.24 4.16 639.24V641.24ZM5.44 640.88C5.83 640.62 6.12 640.26 6.3 639.84L4.48 639.02C4.43 639.14 4.38 639.18 4.35 639.2L5.44 640.88ZM6.3 639.85C6.5 639.42 6.57 638.94 6.57 638.46H4.57C4.57 638.74 4.53 638.92 4.48 639.02L6.3 639.85ZM6.95 641H5.95V642H6.95V641ZM6.95 635.91V634.91H5.95V635.91H6.95ZM9.84 636.13L9.36 637L9.37 637L9.84 636.13ZM10.45 636.73L9.57 637.2L9.57 637.21L10.45 636.73ZM10.45 638.46L11.33 638.94L11.33 638.94L10.45 638.46ZM9.84 639.06L10.31 639.95L10.32 639.94L9.84 639.06ZM7.58 639.28H6.58V640.28H7.58V639.28ZM7.58 638.52V637.52H6.58V638.52H7.58ZM9.29 638.4L9.76 639.28L9.76 639.28L9.29 638.4ZM9.61 638.07L8.72 637.62L8.71 637.63L9.61 638.07ZM9.61 637.12L8.72 637.57L8.72 637.58L9.61 637.12ZM9.28 636.8L8.81 637.68L8.82 637.68L9.28 636.8ZM7.87 636.68V635.68H6.87V636.68H7.87ZM7.87 641V642H8.87V641H7.87ZM7.95 641V635.91H5.95V641H7.95ZM6.95 636.91H8.86V634.91H6.95V636.91ZM8.86 636.91C9.13 636.91 9.28 636.96 9.36 637L10.33 635.25C9.88 635 9.37 634.91 8.86 634.91V636.91ZM9.37 637C9.47 637.06 9.53 637.13 9.57 637.2L11.33 636.26C11.1 635.82 10.75 635.49 10.32 635.25L9.37 637ZM9.57 637.21C9.62 637.3 9.66 637.42 9.66 637.59H11.66C11.66 637.12 11.55 636.67 11.33 636.25L9.57 637.21ZM9.66 637.59C9.66 637.78 9.62 637.9 9.57 637.99L11.33 638.94C11.55 638.52 11.66 638.07 11.66 637.59H9.66ZM9.57 637.99C9.53 638.06 9.47 638.13 9.36 638.18L10.32 639.94C10.75 639.71 11.09 639.38 11.33 638.94L9.57 637.99ZM9.37 638.18C9.28 638.23 9.12 638.28 8.85 638.28V640.28C9.36 640.28 9.86 640.19 10.31 639.95L9.37 638.18ZM8.85 638.28H7.58V640.28H8.85V638.28ZM8.58 639.28V638.52H6.58V639.28H8.58ZM7.58 639.52H8.72V637.52H7.58V639.52ZM8.72 639.52C9.06 639.52 9.43 639.46 9.76 639.28L8.81 637.52C8.83 637.51 8.84 637.51 8.83 637.51C8.81 637.52 8.78 637.52 8.72 637.52V639.52ZM9.76 639.28C10.08 639.11 10.34 638.86 10.5 638.52L8.71 637.63C8.73 637.6 8.74 637.58 8.76 637.56C8.78 637.54 8.8 637.53 8.81 637.52L9.76 639.28ZM10.5 638.53C10.65 638.23 10.72 637.91 10.72 637.59H8.72C8.72 637.62 8.71 637.63 8.71 637.63C8.71 637.63 8.71 637.63 8.72 637.62L10.5 638.53ZM10.72 637.59C10.72 637.28 10.65 636.96 10.5 636.66L8.72 637.58C8.72 637.57 8.72 637.57 8.71 637.56C8.71 637.56 8.71 637.56 8.71 637.56C8.71 637.56 8.72 637.57 8.72 637.59H10.72ZM10.5 636.67C10.33 636.33 10.06 636.07 9.74 635.91L8.82 637.68C8.82 637.68 8.8 637.67 8.77 637.65C8.75 637.62 8.73 637.6 8.72 637.57L10.5 636.67ZM9.75 635.91C9.42 635.74 9.05 635.68 8.72 635.68V637.68C8.78 637.68 8.81 637.68 8.83 637.69C8.85 637.69 8.84 637.69 8.81 637.68L9.75 635.91ZM8.72 635.68H7.87V637.68H8.72V635.68ZM6.87 636.68V641H8.87V636.68H6.87ZM7.87 640H6.95V642H7.87V640ZM10.81 636.68H9.81V637.68H10.81V636.68ZM10.81 635.91V634.91H9.81V635.91H10.81ZM14.87 635.91H15.87V634.91H14.87V635.91ZM14.87 636.68V637.68H15.87V636.68H14.87ZM13.3 636.68V635.68H12.3V636.68H13.3ZM13.3 641V642H14.3V641H13.3ZM12.39 641H11.39V642H12.39V641ZM12.39 636.68H13.39V635.68H12.39V636.68ZM11.81 636.68V635.91H9.81V636.68H11.81ZM10.81 636.91H14.87V634.91H10.81V636.91ZM13.87 635.91V636.68H15.87V635.91H13.87ZM14.87 635.68H13.3V637.68H14.87V635.68ZM12.3 636.68V641H14.3V636.68H12.3ZM13.3 640H12.39V642H13.3V640ZM13.39 641V636.68H11.39V641H13.39ZM12.39 635.68H10.81V637.68H12.39V635.68ZM16.16 635.91H17.16V634.91H16.16V635.91ZM16.16 641V642H17.16V641H16.16ZM15.24 641H14.24V642H15.24V641ZM15.24 635.91V634.91H14.24V635.91H15.24ZM15.16 635.91V641H17.16V635.91H15.16ZM16.16 640H15.24V642H16.16V640ZM16.24 641V635.91H14.24V641H16.24ZM15.24 636.91H16.16V634.91H15.24V636.91ZM20.98 639.86L20.09 639.4L20.09 639.4L20.98 639.86ZM20.14 640.76L19.64 639.9L19.64 639.9L20.14 640.76ZM17.75 640.76L17.24 641.62L17.24 641.62L17.75 640.76ZM16.91 639.86L16.03 640.32L16.03 640.33L16.91 639.86ZM16.91 637.05L16.03 636.58L16.03 636.58L16.91 637.05ZM17.75 636.15L17.24 635.29L17.24 635.29L17.75 636.15ZM20.14 636.15L19.64 637.01L19.64 637.01L20.14 636.15ZM20.98 637.05L20.09 637.51L20.09 637.51L20.98 637.05ZM20.18 637.48L19.27 637.89L19.27 637.89L20.18 637.48ZM19.68 636.87L19.14 637.71L19.14 637.72L19.68 636.87ZM18.21 636.87L18.75 637.72L18.76 637.71L18.21 636.87ZM17.72 637.48L16.8 637.07L16.8 637.07L17.72 637.48ZM17.72 639.43L16.8 639.84L16.81 639.85L17.72 639.43ZM18.21 640.04L17.67 640.88L17.68 640.88L18.21 640.04ZM19.68 640.04L20.22 640.88L20.23 640.88L19.68 640.04ZM20.18 639.43L19.27 639.02L19.27 639.02L20.18 639.43ZM20.29 638.46C20.29 638.88 20.21 639.18 20.09 639.4L21.86 640.33C22.16 639.76 22.29 639.13 22.29 638.46H20.29ZM20.09 639.4C19.97 639.64 19.82 639.79 19.64 639.9L20.65 641.62C21.18 641.31 21.58 640.87 21.87 640.33L20.09 639.4ZM19.64 639.9C19.45 640.01 19.23 640.07 18.95 640.07V642.07C19.56 642.07 20.13 641.93 20.65 641.62L19.64 639.9ZM18.95 640.07C18.66 640.07 18.44 640.01 18.26 639.9L17.24 641.62C17.76 641.93 18.34 642.07 18.95 642.07V640.07ZM18.26 639.9C18.08 639.79 17.93 639.63 17.8 639.39L16.03 640.33C16.32 640.87 16.72 641.31 17.24 641.62L18.26 639.9ZM17.8 639.4C17.69 639.18 17.61 638.88 17.61 638.46H15.61C15.61 639.12 15.73 639.76 16.03 640.32L17.8 639.4ZM17.61 638.46C17.61 638.03 17.69 637.73 17.8 637.51L16.03 636.58C15.73 637.15 15.61 637.78 15.61 638.46H17.61ZM17.8 637.51C17.93 637.27 18.08 637.12 18.26 637.01L17.24 635.29C16.72 635.6 16.31 636.04 16.03 636.58L17.8 637.51ZM18.26 637.01C18.44 636.9 18.66 636.84 18.95 636.84V634.84C18.34 634.84 17.76 634.98 17.24 635.29L18.26 637.01ZM18.95 636.84C19.23 636.84 19.45 636.9 19.64 637.01L20.65 635.29C20.13 634.98 19.56 634.84 18.95 634.84V636.84ZM19.64 637.01C19.82 637.12 19.97 637.27 20.09 637.51L21.87 636.59C21.58 636.04 21.18 635.6 20.65 635.29L19.64 637.01ZM20.09 637.51C20.21 637.73 20.29 638.03 20.29 638.46H22.29C22.29 637.78 22.16 637.14 21.86 636.58L20.09 637.51ZM21.36 638.46C21.36 637.97 21.28 637.49 21.09 637.06L19.27 637.89C19.31 637.99 19.36 638.17 19.36 638.46H21.36ZM21.09 637.07C20.91 636.65 20.62 636.29 20.22 636.03L19.14 637.72C19.17 637.73 19.21 637.77 19.27 637.89L21.09 637.07ZM20.23 636.03C19.84 635.78 19.4 635.67 18.95 635.67V637.67C19.05 637.67 19.1 637.69 19.14 637.71L20.23 636.03ZM18.95 635.67C18.5 635.67 18.06 635.78 17.67 636.03L18.76 637.71C18.79 637.69 18.85 637.67 18.95 637.67V635.67ZM17.68 636.03C17.28 636.29 16.99 636.65 16.8 637.07L18.63 637.89C18.68 637.77 18.73 637.73 18.75 637.72L17.68 636.03ZM16.8 637.07C16.61 637.5 16.54 637.97 16.54 638.46H18.54C18.54 638.17 18.58 637.99 18.63 637.89L16.8 637.07ZM16.54 638.46C16.54 638.94 16.61 639.41 16.8 639.84L18.63 639.03C18.58 638.92 18.54 638.74 18.54 638.46H16.54ZM16.81 639.85C16.99 640.26 17.28 640.62 17.67 640.88L18.76 639.2C18.73 639.18 18.68 639.14 18.63 639.02L16.81 639.85ZM17.68 640.88C18.06 641.13 18.5 641.24 18.95 641.24V639.24C18.84 639.24 18.79 639.22 18.75 639.2L17.68 640.88ZM18.95 641.24C19.4 641.24 19.83 641.13 20.22 640.88L19.14 639.2C19.11 639.22 19.05 639.24 18.95 639.24V641.24ZM20.23 640.88C20.62 640.62 20.9 640.26 21.09 639.84L19.27 639.02C19.21 639.14 19.17 639.18 19.14 639.2L20.23 640.88ZM21.09 639.85C21.28 639.42 21.36 638.94 21.36 638.46H19.36C19.36 638.74 19.31 638.92 19.27 639.02L21.09 639.85ZM25.92 635.91H26.92V634.91H25.92V635.91ZM25.92 641V642H26.92V641H25.92ZM25.1 641L24.28 641.57L24.58 642H25.1V641ZM22.7 637.53L23.53 636.96L23.23 636.53H22.7V637.53ZM22.66 637.53V636.53H21.66V637.53H22.66ZM22.66 641V642H23.66V641H22.66ZM21.74 641H20.74V642H21.74V641ZM21.74 635.91V634.91H20.74V635.91H21.74ZM22.56 635.91L23.39 635.34L23.09 634.91H22.56V635.91ZM24.96 639.38L24.14 639.95L24.44 640.38H24.96V639.38ZM25.01 639.38V640.38H26.01V639.38H25.01ZM25.01 635.91V634.91H24.01V635.91H25.01ZM24.92 635.91V641H26.92V635.91H24.92ZM25.92 640H25.1V642H25.92V640ZM25.93 640.43L23.53 636.96L21.88 638.1L24.28 641.57L25.93 640.43ZM22.7 636.53H22.66V638.53H22.7V636.53ZM21.66 637.53V641H23.66V637.53H21.66ZM22.66 640H21.74V642H22.66V640ZM22.74 641V635.91H20.74V641H22.74ZM21.74 636.91H22.56V634.91H21.74V636.91ZM21.74 636.48L24.14 639.95L25.78 638.81L23.39 635.34L21.74 636.48ZM24.96 640.38H25.01V638.38H24.96V640.38ZM26.01 639.38V635.91H24.01V639.38H26.01ZM25.01 636.91H25.92V634.91H25.01V636.91ZM29.27 637.31L28.28 637.41L28.38 638.31H29.27V637.31ZM28.98 636.8L28.4 637.62L28.41 637.62L28.98 636.8ZM27.82 636.71L28.21 637.63L28.21 637.63L27.82 636.71ZM27.5 636.94L26.7 636.35L26.7 636.35L27.5 636.94ZM27.39 637.28L26.39 637.27V637.28H27.39ZM27.46 637.56L26.61 638.09L26.62 638.09L26.62 638.1L27.46 637.56ZM27.67 637.76L27.12 638.6L27.13 638.61L27.67 637.76ZM27.95 637.89L27.61 638.84L27.61 638.84L27.95 637.89ZM28.26 637.99L28.5 637.01L28.49 637.01L28.26 637.99ZM28.73 638.1L28.49 639.07L28.5 639.08L28.51 639.08L28.73 638.1ZM29.29 638.29L28.89 639.2L28.9 639.21L29.29 638.29ZM29.77 638.57L29.13 639.35L29.14 639.35L29.77 638.57ZM30 640.36L30.83 640.92L30.83 640.92L30 640.36ZM29.34 640.89L29.74 641.8L29.75 641.8L29.34 640.89ZM27.27 640.89L26.88 641.81L26.88 641.82L27.27 640.89ZM26.59 640.36L25.76 640.92L25.77 640.93L26.59 640.36ZM26.32 639.5V638.5H25.28L25.32 639.53L26.32 639.5ZM27.23 639.5L28.23 639.42L28.16 638.5H27.23V639.5ZM27.4 639.94L28.17 639.31L28.17 639.31L27.4 639.94ZM27.77 640.2L27.42 641.14L27.42 641.14L27.77 640.2ZM28.82 640.2L29.19 641.13L29.19 641.13L28.82 640.2ZM29.18 639.95L29.96 640.57L29.96 640.57L29.18 639.95ZM29.31 639.56L30.31 639.58L30.31 639.56L30.31 639.55L29.31 639.56ZM29.19 639.24L28.44 639.89L28.44 639.9L29.19 639.24ZM28.87 639.02L28.47 639.93L28.48 639.93L28.48 639.94L28.87 639.02ZM28.39 638.86L28.15 639.83L28.15 639.83L28.39 638.86ZM27.82 638.71L28.06 637.74L28.06 637.74L27.82 638.71ZM26.82 638.22L26.15 638.96L26.15 638.96L26.82 638.22ZM26.7 636.55L25.89 635.96L25.89 635.97L26.7 636.55ZM27.37 636.03L27.77 636.94L27.78 636.94L27.37 636.03ZM29.28 636.03L28.86 636.94L28.86 636.94L29.28 636.03ZM29.92 636.55L29.1 637.12L29.1 637.12L29.92 636.55ZM30.16 637.31V638.31H31.18L31.16 637.29L30.16 637.31ZM30.27 637.2C30.22 636.71 29.97 636.28 29.56 635.98L28.41 637.62C28.38 637.6 28.35 637.57 28.32 637.52C28.29 637.47 28.28 637.43 28.28 637.41L30.27 637.2ZM29.56 635.99C29.17 635.71 28.73 635.62 28.31 635.62V637.62C28.38 637.62 28.41 637.63 28.42 637.63C28.43 637.63 28.42 637.63 28.4 637.62L29.56 635.99ZM28.31 635.62C28.03 635.62 27.72 635.66 27.43 635.79L28.21 637.63C28.19 637.63 28.22 637.62 28.31 637.62V635.62ZM27.43 635.79C27.16 635.9 26.9 636.08 26.7 636.35L28.31 637.53C28.26 637.61 28.2 637.63 28.21 637.63L27.43 635.79ZM26.7 636.35C26.5 636.62 26.4 636.94 26.39 637.27L28.39 637.3C28.39 637.33 28.39 637.37 28.37 637.41C28.36 637.46 28.33 637.5 28.31 637.53L26.7 636.35ZM26.39 637.28C26.39 637.54 26.45 637.83 26.61 638.09L28.32 637.03C28.38 637.14 28.39 637.23 28.39 637.28H26.39ZM26.62 638.1C26.76 638.31 26.93 638.47 27.12 638.6L28.21 636.92C28.23 636.93 28.27 636.97 28.31 637.02L26.62 638.1ZM27.13 638.61C27.29 638.7 27.45 638.78 27.61 638.84L28.28 636.95C28.24 636.94 28.21 636.92 28.2 636.91L27.13 638.61ZM27.61 638.84C27.75 638.88 27.89 638.92 28.03 638.96L28.49 637.01C28.42 637 28.35 636.98 28.28 636.95L27.61 638.84ZM28.02 638.96L28.49 639.07L28.98 637.13L28.5 637.01L28.02 638.96ZM28.51 639.08C28.64 639.11 28.77 639.15 28.89 639.2L29.68 637.37C29.45 637.27 29.21 637.19 28.96 637.13L28.51 639.08ZM28.9 639.21C28.99 639.25 29.07 639.29 29.13 639.35L30.4 637.8C30.19 637.62 29.94 637.48 29.68 637.37L28.9 639.21ZM29.14 639.35C29.17 639.38 29.2 639.41 29.21 639.45L31 638.54C30.85 638.25 30.65 638 30.4 637.8L29.14 639.35ZM29.21 639.45C29.21 639.45 29.22 639.45 29.22 639.47C29.23 639.49 29.23 639.52 29.23 639.57H31.23C31.23 639.23 31.17 638.87 31 638.54L29.21 639.45ZM29.23 639.57C29.23 639.69 29.2 639.75 29.17 639.8L30.83 640.92C31.11 640.51 31.23 640.05 31.23 639.57H29.23ZM29.17 639.8C29.14 639.85 29.08 639.91 28.94 639.97L29.75 641.8C30.18 641.61 30.56 641.32 30.83 640.92L29.17 639.8ZM28.94 639.97C28.81 640.03 28.61 640.08 28.3 640.08V642.08C28.81 642.08 29.3 642 29.74 641.8L28.94 639.97ZM28.3 640.08C28 640.08 27.8 640.03 27.66 639.97L26.88 641.82C27.32 642 27.8 642.08 28.3 642.08V640.08ZM27.66 639.97C27.52 639.91 27.45 639.85 27.41 639.78L25.77 640.93C26.05 641.33 26.43 641.63 26.88 641.81L27.66 639.97ZM27.41 639.79C27.37 639.74 27.33 639.64 27.32 639.46L25.32 639.53C25.34 640.03 25.48 640.51 25.76 640.92L27.41 639.79ZM26.32 640.5H27.23V638.5H26.32V640.5ZM26.23 639.57C26.26 639.92 26.37 640.27 26.62 640.57L28.17 639.31C28.19 639.34 28.21 639.37 28.22 639.39C28.23 639.42 28.23 639.43 28.23 639.42L26.23 639.57ZM26.62 640.57C26.84 640.84 27.11 641.02 27.42 641.14L28.12 639.27C28.12 639.26 28.12 639.27 28.14 639.27C28.15 639.28 28.16 639.29 28.17 639.31L26.62 640.57ZM27.42 641.14C27.7 641.25 28 641.29 28.29 641.29V639.29C28.2 639.29 28.15 639.27 28.12 639.26L27.42 641.14ZM28.29 641.29C28.59 641.29 28.9 641.25 29.19 641.13L28.45 639.27C28.44 639.27 28.4 639.29 28.29 639.29V641.29ZM29.19 641.13C29.47 641.01 29.75 640.84 29.96 640.57L28.4 639.32C28.42 639.3 28.43 639.28 28.45 639.27C28.46 639.27 28.46 639.27 28.45 639.27L29.19 641.13ZM29.96 640.57C30.19 640.27 30.31 639.93 30.31 639.58L28.31 639.55C28.31 639.53 28.31 639.49 28.33 639.44C28.35 639.4 28.37 639.36 28.39 639.33L29.96 640.57ZM30.31 639.55C30.3 639.22 30.2 638.87 29.94 638.57L28.44 639.9C28.4 639.84 28.36 639.78 28.34 639.72C28.31 639.65 28.31 639.6 28.31 639.58L30.31 639.55ZM29.95 638.58C29.75 638.35 29.5 638.2 29.26 638.1L28.48 639.94C28.52 639.95 28.49 639.95 28.44 639.89L29.95 638.58ZM29.27 638.1C29.08 638.01 28.86 637.95 28.64 637.89L28.15 639.83C28.29 639.86 28.4 639.9 28.47 639.93L29.27 638.1ZM28.64 637.89L28.06 637.74L27.57 639.68L28.15 639.83L28.64 637.89ZM28.06 637.74C27.75 637.66 27.58 637.56 27.49 637.47L26.15 638.96C26.55 639.32 27.04 639.54 27.57 639.68L28.06 637.74ZM27.49 637.48C27.48 637.47 27.48 637.46 27.47 637.45C27.47 637.44 27.46 637.41 27.46 637.34H25.46C25.46 637.95 25.67 638.52 26.15 638.96L27.49 637.48ZM27.46 637.34C27.46 637.23 27.48 637.18 27.51 637.14L25.89 635.97C25.6 636.38 25.46 636.85 25.46 637.34H27.46ZM27.51 637.14C27.56 637.07 27.64 637 27.77 636.94L26.97 635.11C26.54 635.3 26.17 635.58 25.89 635.96L27.51 637.14ZM27.78 636.94C27.91 636.88 28.09 636.84 28.33 636.84V634.84C27.85 634.84 27.39 634.92 26.96 635.12L27.78 636.94ZM28.33 636.84C28.57 636.84 28.74 636.88 28.86 636.94L29.7 635.12C29.27 634.92 28.8 634.84 28.33 634.84V636.84ZM28.86 636.94C28.99 637 29.06 637.06 29.1 637.12L30.74 635.97C30.47 635.59 30.11 635.31 29.69 635.12L28.86 636.94ZM29.1 637.12C29.14 637.17 29.16 637.23 29.16 637.33L31.16 637.29C31.15 636.82 31.02 636.37 30.74 635.97L29.1 637.12ZM30.16 636.31H29.27V638.31H30.16V636.31Z" fill="#232323" mask="url(#path-27-outside-1_401_4614)" />
</g></svg>