<?xml version="1.0" encoding="UTF-8"?>
<svg xmlns="http://www.w3.org/2000/svg" width="32" height="32" viewBox="0 0 32.000000 32.000000" fill="none"><g transform="translate(-42.000000,-546.000000)">
<mask id="path-112-outside-5_401_4614" maskUnits="userSpaceOnUse" x="46" y="549" width="24" height="17" fill="black">
<rect fill="white" x="46" y="549" width="24" height="17" />
<path d="M47.3 564V550.91H52.46C53.45 550.91 54.3 551.09 54.99 551.44C55.7 551.79 56.23 552.29 56.6 552.93C56.97 553.57 57.16 554.32 57.16 555.18C57.16 556.05 56.97 556.8 56.59 557.43C56.22 558.05 55.67 558.53 54.96 558.86C54.26 559.19 53.4 559.36 52.39 559.36H48.94V557.13H51.95C52.47 557.13 52.91 557.06 53.26 556.92C53.61 556.77 53.87 556.55 54.04 556.27C54.22 555.98 54.3 555.62 54.3 555.18C54.3 554.75 54.22 554.38 54.04 554.09C53.87 553.79 53.61 553.56 53.26 553.41C52.91 553.25 52.47 553.17 51.93 553.17H50.07V564H47.3ZM54.37 558.04L57.62 564H54.57L51.38 558.04H54.37ZM63.87 564.18C62.92 564.18 62.07 564.01 61.32 563.69C60.58 563.35 60 562.9 59.57 562.32C59.14 561.74 58.92 561.06 58.91 560.3H61.69C61.71 560.62 61.82 560.9 62.01 561.14C62.2 561.38 62.46 561.57 62.79 561.7C63.11 561.83 63.48 561.9 63.88 561.9C64.3 561.9 64.67 561.82 65 561.67C65.32 561.52 65.58 561.32 65.76 561.05C65.94 560.79 66.03 560.48 66.03 560.14C66.03 559.79 65.94 559.48 65.74 559.21C65.55 558.94 65.27 558.73 64.91 558.57C64.55 558.42 64.12 558.34 63.63 558.34H62.41V556.31H63.63C64.05 556.31 64.42 556.24 64.74 556.09C65.06 555.95 65.31 555.75 65.49 555.49C65.67 555.23 65.76 554.93 65.76 554.59C65.76 554.26 65.68 553.97 65.52 553.72C65.37 553.47 65.15 553.27 64.87 553.13C64.59 552.99 64.27 552.92 63.9 552.92C63.52 552.92 63.18 552.99 62.87 553.13C62.56 553.26 62.31 553.45 62.12 553.7C61.93 553.94 61.83 554.23 61.82 554.57H59.17C59.18 553.81 59.4 553.15 59.81 552.57C60.23 552 60.79 551.55 61.5 551.22C62.21 550.89 63.02 550.73 63.91 550.73C64.82 550.73 65.61 550.89 66.28 551.22C66.96 551.55 67.49 551.99 67.86 552.55C68.24 553.11 68.43 553.73 68.42 554.42C68.43 555.15 68.2 555.76 67.74 556.25C67.28 556.74 66.69 557.05 65.96 557.19V557.29C66.92 557.41 67.65 557.75 68.16 558.29C68.66 558.83 68.91 559.51 68.91 560.33C68.91 561.07 68.7 561.73 68.26 562.31C67.83 562.89 67.24 563.35 66.48 563.68C65.72 564.01 64.85 564.18 63.87 564.18Z" />
</mask>
<path d="M47.3 564V550.91H52.46C53.45 550.91 54.3 551.09 54.99 551.44C55.7 551.79 56.23 552.29 56.6 552.93C56.97 553.57 57.16 554.32 57.16 555.18C57.16 556.05 56.97 556.8 56.59 557.43C56.22 558.05 55.67 558.53 54.96 558.86C54.26 559.19 53.4 559.36 52.39 559.36H48.94V557.13H51.95C52.47 557.13 52.91 557.06 53.26 556.92C53.61 556.77 53.87 556.55 54.04 556.27C54.22 555.98 54.3 555.62 54.3 555.18C54.3 554.75 54.22 554.38 54.04 554.09C53.87 553.79 53.61 553.56 53.26 553.41C52.91 553.25 52.47 553.17 51.93 553.17H50.07V564H47.3ZM54.37 558.04L57.62 564H54.57L51.38 558.04H54.37ZM63.87 564.18C62.92 564.18 62.07 564.01 61.32 563.69C60.58 563.35 60 562.9 59.57 562.32C59.14 561.74 58.92 561.06 58.91 560.3H61.69C61.71 560.62 61.82 560.9 62.01 561.14C62.2 561.38 62.46 561.57 62.79 561.7C63.11 561.83 63.48 561.9 63.88 561.9C64.3 561.9 64.67 561.82 65 561.67C65.32 561.52 65.58 561.32 65.76 561.05C65.94 560.79 66.03 560.48 66.03 560.14C66.03 559.79 65.94 559.48 65.74 559.21C65.55 558.94 65.27 558.73 64.91 558.57C64.55 558.42 64.12 558.34 63.63 558.34H62.41V556.31H63.63C64.05 556.31 64.42 556.24 64.74 556.09C65.06 555.95 65.31 555.75 65.49 555.49C65.67 555.23 65.76 554.93 65.76 554.59C65.76 554.26 65.68 553.97 65.52 553.72C65.37 553.47 65.15 553.27 64.87 553.13C64.59 552.99 64.27 552.92 63.9 552.92C63.52 552.92 63.18 552.99 62.87 553.13C62.56 553.26 62.31 553.45 62.12 553.7C61.93 553.94 61.83 554.23 61.82 554.57H59.17C59.18 553.81 59.4 553.15 59.81 552.57C60.23 552 60.79 551.55 61.5 551.22C62.21 550.89 63.02 550.73 63.91 550.73C64.82 550.73 65.61 550.89 66.28 551.22C66.96 551.55 67.49 551.99 67.86 552.55C68.24 553.11 68.43 553.73 68.42 554.42C68.43 555.15 68.2 555.76 67.74 556.25C67.28 556.74 66.69 557.05 65.96 557.19V557.29C66.92 557.41 67.65 557.75 68.16 558.29C68.66 558.83 68.91 559.51 68.91 560.33C68.91 561.07 68.7 561.73 68.26 562.31C67.83 562.89 67.24 563.35 66.48 563.68C65.72 564.01 64.85 564.18 63.87 564.18Z" fill="#2A2A2A" />
<path d="M47.3 564H46.3C46.3 564.55 46.75 565 47.3 565V564ZM47.3 550.91V549.91C46.75 549.91 46.3 550.36 46.3 550.91H47.3ZM54.99 551.44L54.54 552.33L54.55 552.34L54.99 551.44ZM56.6 552.93L55.73 553.42L55.73 553.43L56.6 552.93ZM56.59 557.43L57.45 557.95L57.45 557.94L56.59 557.43ZM54.96 558.86L54.54 557.96L54.54 557.96L54.96 558.86ZM48.94 559.36H47.94C47.94 559.91 48.38 560.36 48.94 560.36V559.36ZM48.94 557.13V556.13C48.38 556.13 47.94 556.58 47.94 557.13H48.94ZM53.26 556.92L53.65 557.84L53.65 557.84L53.26 556.92ZM54.04 556.27L53.19 555.75L53.18 555.76L54.04 556.27ZM54.04 554.09L53.17 554.58L53.18 554.59L54.04 554.09ZM53.26 553.41L52.84 554.32C52.85 554.32 52.85 554.32 52.86 554.33L53.26 553.41ZM50.07 553.17V552.17C49.51 552.17 49.07 552.62 49.07 553.17H50.07ZM50.07 564V565C50.62 565 51.07 564.55 51.07 564H50.07ZM54.37 558.04L55.25 557.56C55.07 557.24 54.73 557.04 54.37 557.04V558.04ZM57.62 564V565C57.98 565 58.3 564.81 58.48 564.51C58.66 564.21 58.67 563.83 58.5 563.52L57.62 564ZM54.57 564L53.68 564.47C53.86 564.8 54.2 565 54.57 565V564ZM51.38 558.04V557.04C51.03 557.04 50.71 557.23 50.53 557.53C50.35 557.83 50.34 558.2 50.5 558.51L51.38 558.04ZM48.3 564V550.91H46.3V564H48.3ZM47.3 551.91H52.46V549.91H47.3V551.91ZM52.46 551.91C53.34 551.91 54.02 552.07 54.54 552.33L55.45 550.55C54.58 550.11 53.57 549.91 52.46 549.91V551.91ZM54.55 552.34C55.09 552.6 55.47 552.96 55.73 553.42L57.47 552.43C57 551.61 56.31 550.98 55.44 550.54L54.55 552.34ZM55.73 553.43C56 553.89 56.16 554.47 56.16 555.18H58.16C58.16 554.17 57.94 553.24 57.46 552.43L55.73 553.43ZM56.16 555.18C56.16 555.91 56 556.47 55.73 556.91L57.45 557.94C57.94 557.13 58.16 556.2 58.16 555.18H56.16ZM55.74 556.91C55.47 557.35 55.09 557.7 54.54 557.96L55.39 559.77C56.26 559.36 56.96 558.75 57.45 557.95L55.74 556.91ZM54.54 557.96C54 558.21 53.29 558.36 52.39 558.36V560.36C53.51 560.36 54.52 560.18 55.39 559.77L54.54 557.96ZM52.39 558.36H48.94V560.36H52.39V558.36ZM49.94 559.36V557.13H47.94V559.36H49.94ZM48.94 558.13H51.95V556.13H48.94V558.13ZM51.95 558.13C52.56 558.13 53.14 558.05 53.65 557.84L52.88 555.99C52.69 556.07 52.39 556.13 51.95 556.13V558.13ZM53.65 557.84C54.17 557.62 54.61 557.27 54.9 556.77L53.18 555.76C53.13 555.84 53.05 555.92 52.88 555.99L53.65 557.84ZM54.9 556.78C55.19 556.3 55.3 555.75 55.3 555.18H53.3C53.3 555.48 53.24 555.65 53.19 555.75L54.9 556.78ZM55.3 555.18C55.3 554.62 55.19 554.07 54.91 553.58L53.18 554.59C53.24 554.7 53.3 554.88 53.3 555.18H55.3ZM54.91 553.59C54.62 553.08 54.18 552.72 53.65 552.49L52.86 554.33C53.04 554.4 53.12 554.49 53.17 554.58L54.91 553.59ZM53.67 552.5C53.15 552.26 52.56 552.17 51.93 552.17V554.17C52.38 554.17 52.66 554.24 52.84 554.32L53.67 552.5ZM51.93 552.17H50.07V554.17H51.93V552.17ZM49.07 553.17V564H51.07V553.17H49.07ZM50.07 563H47.3V565H50.07V563ZM53.49 558.52L56.74 564.48L58.5 563.52L55.25 557.56L53.49 558.52ZM57.62 563H54.57V565H57.62V563ZM55.45 563.53L52.27 557.57L50.5 558.51L53.68 564.47L55.45 563.53ZM51.38 559.04H54.37V557.04H51.38V559.04ZM61.32 563.69L60.91 564.6L60.92 564.6L61.32 563.69ZM59.57 562.32L58.76 562.91L58.76 562.91L59.57 562.32ZM58.91 560.3V559.3C58.64 559.3 58.38 559.41 58.19 559.6C58.01 559.79 57.9 560.05 57.91 560.32L58.91 560.3ZM61.69 560.3L62.69 560.25C62.66 559.72 62.23 559.3 61.69 559.3V560.3ZM62.01 561.14L61.22 561.76C61.23 561.77 61.23 561.77 61.23 561.78L62.01 561.14ZM62.79 561.7L62.41 562.62L62.41 562.62L62.79 561.7ZM65 561.67L64.58 560.76L64.58 560.76L65 561.67ZM65.76 561.05L66.58 561.62L66.58 561.62L65.76 561.05ZM65.74 559.21L64.92 559.79C64.93 559.79 64.93 559.8 64.93 559.8L65.74 559.21ZM64.91 558.57L64.52 559.49L64.52 559.49L64.91 558.57ZM62.41 558.34H61.41C61.41 558.89 61.86 559.34 62.41 559.34V558.34ZM62.41 556.31V555.31C61.86 555.31 61.41 555.76 61.41 556.31H62.41ZM64.74 556.09L64.33 555.18L64.32 555.18L64.74 556.09ZM65.49 555.49L66.31 556.07L66.31 556.06L65.49 555.49ZM65.52 553.72L64.67 554.24C64.67 554.25 64.68 554.25 64.68 554.26L65.52 553.72ZM64.87 553.13L64.42 554.02L64.42 554.03L64.87 553.13ZM62.87 553.13L63.26 554.05L63.27 554.04L62.87 553.13ZM62.12 553.7L62.92 554.3L62.92 554.3L62.12 553.7ZM61.82 554.57V555.57C62.36 555.57 62.8 555.14 62.82 554.6L61.82 554.57ZM59.17 554.57L58.17 554.55C58.16 554.82 58.27 555.08 58.46 555.27C58.64 555.46 58.9 555.57 59.17 555.57V554.57ZM59.81 552.57L60.62 553.16L60.62 553.16L59.81 552.57ZM61.5 551.22L61.92 552.13L61.92 552.13L61.5 551.22ZM66.28 551.22L66.72 550.32L66.72 550.32L66.28 551.22ZM67.86 552.55L67.03 553.11L67.04 553.12L67.86 552.55ZM68.42 554.42L67.42 554.41L67.42 554.42L68.42 554.42ZM67.74 556.25L67.01 555.57L67.01 555.57L67.74 556.25ZM65.96 557.19L65.78 556.2C65.3 556.29 64.96 556.7 64.96 557.19H65.96ZM65.96 557.29H64.96C64.96 557.79 65.33 558.22 65.83 558.28L65.96 557.29ZM68.16 558.29L67.42 558.97L67.43 558.98L68.16 558.29ZM68.91 560.33L67.91 560.32L67.91 560.33L68.91 560.33ZM68.26 562.31L67.46 561.71L67.46 561.72L68.26 562.31ZM66.48 563.68L66.08 562.76L66.08 562.76L66.48 563.68ZM63.87 563.18C63.03 563.18 62.32 563.03 61.73 562.77L60.92 564.6C61.81 565 62.8 565.18 63.87 565.18V563.18ZM61.73 562.77C61.13 562.5 60.68 562.15 60.37 561.72L58.76 562.91C59.31 563.65 60.04 564.21 60.91 564.6L61.73 562.77ZM60.37 561.73C60.08 561.32 59.92 560.85 59.91 560.28L57.91 560.32C57.92 561.27 58.2 562.15 58.76 562.91L60.37 561.73ZM58.91 561.3H61.69V559.3H58.91V561.3ZM60.7 560.35C60.72 560.87 60.9 561.35 61.22 561.76L62.79 560.52C62.73 560.45 62.7 560.37 62.69 560.25L60.7 560.35ZM61.23 561.78C61.55 562.16 61.95 562.44 62.41 562.62L63.16 560.77C62.97 560.7 62.86 560.6 62.78 560.51L61.23 561.78ZM62.41 562.62C62.87 562.81 63.37 562.9 63.88 562.9V560.9C63.58 560.9 63.35 560.85 63.16 560.77L62.41 562.62ZM63.88 562.9C64.42 562.9 64.94 562.8 65.42 562.58L64.58 560.76C64.41 560.84 64.18 560.9 63.88 560.9V562.9ZM65.42 562.58C65.88 562.37 66.28 562.05 66.58 561.62L64.94 560.48C64.87 560.59 64.76 560.68 64.58 560.76L65.42 562.58ZM66.58 561.62C66.89 561.18 67.03 560.67 67.03 560.14H65.03C65.03 560.3 65 560.4 64.94 560.48L66.58 561.62ZM67.03 560.14C67.03 559.59 66.88 559.07 66.55 558.62L64.93 559.8C65 559.89 65.03 559.99 65.03 560.14H67.03ZM66.56 558.64C66.24 558.19 65.8 557.87 65.3 557.65L64.52 559.49C64.74 559.59 64.86 559.69 64.92 559.79L66.56 558.64ZM65.3 557.65C64.79 557.43 64.23 557.34 63.63 557.34V559.34C64.02 559.34 64.31 559.4 64.52 559.49L65.3 557.65ZM63.63 557.34H62.41V559.34H63.63V557.34ZM63.41 558.34V556.31H61.41V558.34H63.41ZM62.41 557.31H63.63V555.31H62.41V557.31ZM63.63 557.31C64.16 557.31 64.68 557.22 65.15 557L64.32 555.18C64.16 555.26 63.93 555.31 63.63 555.31V557.31ZM65.14 557.01C65.61 556.8 66.01 556.49 66.31 556.07L64.67 554.92C64.61 555.01 64.51 555.1 64.33 555.18L65.14 557.01ZM66.31 556.06C66.62 555.62 66.76 555.11 66.76 554.59H64.76C64.76 554.75 64.72 554.85 64.67 554.92L66.31 556.06ZM66.76 554.59C66.76 554.09 66.64 553.61 66.37 553.18L64.68 554.26C64.72 554.33 64.76 554.42 64.76 554.59H66.76ZM66.38 553.2C66.12 552.78 65.76 552.46 65.32 552.24L64.42 554.03C64.55 554.09 64.62 554.16 64.67 554.24L66.38 553.2ZM65.32 552.24C64.88 552.02 64.4 551.92 63.9 551.92V553.92C64.14 553.92 64.31 553.97 64.42 554.02L65.32 552.24ZM63.9 551.92C63.4 551.92 62.92 552.01 62.47 552.21L63.27 554.04C63.44 553.97 63.65 553.92 63.9 553.92V551.92ZM62.48 552.21C62.02 552.4 61.63 552.69 61.33 553.09L62.92 554.3C62.99 554.2 63.1 554.12 63.26 554.05L62.48 552.21ZM61.33 553.09C61 553.51 60.84 554 60.82 554.53L62.82 554.6C62.83 554.46 62.86 554.37 62.92 554.3L61.33 553.09ZM61.82 553.57H59.17V555.57H61.82V553.57ZM60.17 554.58C60.18 554.02 60.33 553.56 60.62 553.16L59.01 551.98C58.46 552.74 58.19 553.6 58.17 554.55L60.17 554.58ZM60.62 553.16C60.93 552.74 61.35 552.39 61.92 552.13L61.09 550.31C60.24 550.7 59.53 551.26 59.01 551.98L60.62 553.16ZM61.92 552.13C62.48 551.87 63.14 551.73 63.91 551.73V549.73C62.89 549.73 61.94 549.92 61.08 550.31L61.92 552.13ZM63.91 551.73C64.69 551.73 65.33 551.87 65.85 552.12L66.72 550.32C65.88 549.92 64.94 549.73 63.91 549.73V551.73ZM65.85 552.12C66.39 552.38 66.77 552.72 67.03 553.11L68.69 551.99C68.21 551.27 67.54 550.72 66.72 550.32L65.85 552.12ZM67.04 553.12C67.3 553.5 67.43 553.92 67.42 554.41L69.42 554.42C69.43 553.54 69.19 552.71 68.69 551.99L67.04 553.12ZM67.42 554.42C67.43 554.93 67.28 555.28 67.01 555.57L68.47 556.94C69.12 556.24 69.43 555.38 69.42 554.41L67.42 554.42ZM67.01 555.57C66.72 555.89 66.33 556.1 65.78 556.2L66.13 558.17C67.06 558 67.85 557.6 68.47 556.93L67.01 555.57ZM64.96 557.19V557.29H66.96V557.19H64.96ZM65.83 558.28C66.63 558.38 67.12 558.64 67.42 558.97L68.89 557.61C68.19 556.85 67.21 556.44 66.08 556.3L65.83 558.28ZM67.43 558.98C67.74 559.31 67.91 559.73 67.91 560.32L69.91 560.33C69.92 559.29 69.59 558.36 68.89 557.61L67.43 558.98ZM67.91 560.33C67.91 560.87 67.76 561.31 67.46 561.71L69.06 562.91C69.63 562.15 69.92 561.28 69.91 560.32L67.91 560.33ZM67.46 561.72C67.15 562.14 66.7 562.49 66.08 562.76L66.88 564.6C67.78 564.21 68.52 563.65 69.07 562.91L67.46 561.72ZM66.08 562.76C65.47 563.03 64.74 563.18 63.87 563.18V565.18C64.97 565.18 65.98 564.99 66.88 564.6L66.08 562.76Z" fill="#FFFFFE" mask="url(#path-112-outside-5_401_4614)" />
<mask id="path-114-inside-6_401_4614" fill="white">
<path fill-rule="evenodd" clip-rule="evenodd" d="M45.56 565.56C43.59 565.56 42 567.15 42 569.11C42 571.08 43.59 572.67 45.56 572.67H50.89V578H65.11V572.67H70.44C72.41 572.67 74 571.08 74 569.11C74 567.15 72.41 565.56 70.44 565.56H45.56Z" />
</mask>
<path fill-rule="evenodd" clip-rule="evenodd" d="M45.56 565.56C43.59 565.56 42 567.15 42 569.11C42 571.08 43.59 572.67 45.56 572.67H50.89V578H65.11V572.67H70.44C72.41 572.67 74 571.08 74 569.11C74 567.15 72.41 565.56 70.44 565.56H45.56Z" fill="#2A2A2A" />
<path d="M50.89 572.67H51.89V571.67H50.89V572.67ZM50.89 578H49.89V579H50.89V578ZM65.11 578V579H66.11V578H65.11ZM65.11 572.67V571.67H64.11V572.67H65.11ZM43 569.11C43 567.7 44.14 566.56 45.56 566.56V564.56C43.04 564.56 41 566.6 41 569.11H43ZM45.56 571.67C44.14 571.67 43 570.52 43 569.11H41C41 571.63 43.04 573.67 45.56 573.67V571.67ZM50.89 571.67H45.56V573.67H50.89V571.67ZM51.89 578V572.67H49.89V578H51.89ZM65.11 577H50.89V579H65.11V577ZM64.11 572.67V578H66.11V572.67H64.11ZM70.44 571.67H65.11V573.67H70.44V571.67ZM73 569.11C73 570.52 71.86 571.67 70.44 571.67V573.67C72.96 573.67 75 571.63 75 569.11H73ZM70.44 566.56C71.86 566.56 73 567.7 73 569.11H75C75 566.6 72.96 564.56 70.44 564.56V566.56ZM45.56 566.56H70.44V564.56H45.56V566.56Z" fill="#232323" mask="url(#path-114-inside-6_401_4614)" />
<path d="M65.11 568.22H50.89L58 573.56L65.11 568.22Z" fill="#FFFFFE" />
</g></svg>