<?xml version="1.0" encoding="UTF-8"?>
<svg xmlns="http://www.w3.org/2000/svg" width="32" height="32" viewBox="0 0 32.000000 32.000000" fill="none"><g transform="translate(-42.000000,-84.000000)">
<path d="M44 89.5H72C72.83 89.5 73.5 90.17 73.5 91V101C73.5 106.25 69.25 110.5 64 110.5H52C46.75 110.5 42.5 106.25 42.5 101V91C42.5 90.17 43.17 89.5 44 89.5Z" fill="#2A2A2A" stroke="#232323" />
<path d="M51.01 105V93.36H55.6C56.48 93.36 57.23 93.52 57.85 93.84C58.48 94.15 58.95 94.59 59.28 95.16C59.61 95.73 59.77 96.4 59.77 97.16C59.77 97.94 59.61 98.6 59.27 99.16C58.94 99.71 58.46 100.14 57.82 100.43C57.2 100.73 56.43 100.88 55.54 100.88H52.47V98.9H55.14C55.61 98.9 56 98.83 56.31 98.7C56.62 98.58 56.85 98.38 57.01 98.12C57.16 97.87 57.24 97.55 57.24 97.16C57.24 96.78 57.16 96.45 57.01 96.19C56.85 95.92 56.62 95.72 56.31 95.59C56 95.45 55.6 95.38 55.13 95.38H53.47V105H51.01ZM57.3 99.7L60.19 105H57.47L54.64 99.7H57.3ZM66.51 93.36V105H64.05V95.7H63.98L61.31 97.37V95.19L64.19 93.36H66.51Z" fill="#FFFFFE" />
</g></svg>