<?xml version="1.0" encoding="UTF-8"?>
<svg xmlns="http://www.w3.org/2000/svg" width="32" height="32" viewBox="0 0 32.000000 32.000000" fill="none"><g transform="translate(-42.000000,-630.000000)">
<rect x="54.97" y="645.09" width="6.06" height="13.12" rx="3.03" fill="#2A2A2A" stroke="#232323" />
<mask id="path-30-outside-2_401_4614" maskUnits="userSpaceOnUse" x="46" y="634" width="24" height="9" fill="black">
<rect fill="white" x="46" y="634" width="24" height="9" />
<path d="M50.3 637.31C50.27 637.09 50.18 636.92 50 636.8C49.83 636.68 49.61 636.62 49.34 636.62C49.14 636.62 48.98 636.65 48.84 636.71C48.7 636.76 48.6 636.84 48.53 636.94C48.45 637.04 48.42 637.16 48.41 637.28C48.41 637.39 48.44 637.48 48.49 637.56C48.54 637.64 48.6 637.7 48.69 637.76C48.77 637.81 48.87 637.86 48.97 637.89C49.07 637.93 49.18 637.96 49.28 637.99L49.76 638.1C49.95 638.15 50.13 638.21 50.31 638.29C50.49 638.36 50.65 638.46 50.79 638.57C50.93 638.69 51.05 638.83 51.13 638.99C51.21 639.16 51.25 639.35 51.25 639.57C51.25 639.87 51.18 640.13 51.02 640.36C50.87 640.58 50.65 640.76 50.36 640.89C50.08 641.01 49.73 641.08 49.32 641.08C48.93 641.08 48.58 641.02 48.29 640.89C48 640.77 47.77 640.59 47.61 640.36C47.45 640.12 47.36 639.83 47.35 639.5H48.25C48.27 639.67 48.32 639.82 48.42 639.94C48.51 640.06 48.64 640.14 48.79 640.2C48.95 640.26 49.12 640.29 49.31 640.29C49.52 640.29 49.69 640.26 49.84 640.2C49.99 640.14 50.11 640.05 50.2 639.95C50.29 639.84 50.33 639.71 50.33 639.56C50.33 639.43 50.29 639.32 50.21 639.24C50.14 639.15 50.03 639.07 49.89 639.02C49.76 638.96 49.6 638.9 49.42 638.86L48.84 638.71C48.42 638.6 48.09 638.44 47.84 638.22C47.6 638 47.48 637.71 47.48 637.34C47.48 637.04 47.56 636.78 47.72 636.55C47.89 636.33 48.11 636.15 48.39 636.03C48.67 635.9 48.99 635.84 49.35 635.84C49.71 635.84 50.03 635.9 50.3 636.03C50.57 636.15 50.79 636.33 50.94 636.55C51.1 636.77 51.18 637.02 51.18 637.31H50.3ZM51.66 641V635.91H52.58V638.06H54.94V635.91H55.86V641H54.94V638.84H52.58V641H51.66ZM57.1 641H56.11L57.91 635.91H59.04L60.84 641H59.85L58.5 636.95H58.46L57.1 641ZM57.13 639H59.82V639.75H57.13V639ZM61.09 641V635.91H63C63.39 635.91 63.72 635.98 63.98 636.11C64.25 636.25 64.45 636.44 64.59 636.68C64.72 636.93 64.79 637.21 64.79 637.54C64.79 637.86 64.72 638.15 64.58 638.39C64.45 638.63 64.24 638.81 63.98 638.94C63.71 639.07 63.38 639.14 62.99 639.14H61.63V638.37H62.86C63.09 638.37 63.28 638.34 63.42 638.28C63.57 638.21 63.68 638.12 63.75 638C63.82 637.87 63.85 637.72 63.85 637.54C63.85 637.36 63.82 637.2 63.75 637.08C63.68 636.95 63.57 636.85 63.42 636.78C63.28 636.71 63.09 636.68 62.86 636.68H62.01V641H61.09ZM63.72 638.69L64.98 641H63.95L62.71 638.69H63.72ZM65.22 641V635.91H68.53V636.68H66.14V638.06H68.36V638.84H66.14V640.23H68.55V641H65.22Z" />
</mask>
<path d="M50.3 637.31C50.27 637.09 50.18 636.92 50 636.8C49.83 636.68 49.61 636.62 49.34 636.62C49.14 636.62 48.98 636.65 48.84 636.71C48.7 636.76 48.6 636.84 48.53 636.94C48.45 637.04 48.42 637.16 48.41 637.28C48.41 637.39 48.44 637.48 48.49 637.56C48.54 637.64 48.6 637.7 48.69 637.76C48.77 637.81 48.87 637.86 48.97 637.89C49.07 637.93 49.18 637.96 49.28 637.99L49.76 638.1C49.95 638.15 50.13 638.21 50.31 638.29C50.49 638.36 50.65 638.46 50.79 638.57C50.93 638.69 51.05 638.83 51.13 638.99C51.21 639.16 51.25 639.35 51.25 639.57C51.25 639.87 51.18 640.13 51.02 640.36C50.87 640.58 50.65 640.76 50.36 640.89C50.08 641.01 49.73 641.08 49.32 641.08C48.93 641.08 48.58 641.02 48.29 640.89C48 640.77 47.77 640.59 47.61 640.36C47.45 640.12 47.36 639.83 47.35 639.5H48.25C48.27 639.67 48.32 639.82 48.42 639.94C48.51 640.06 48.64 640.14 48.79 640.2C48.95 640.26 49.12 640.29 49.31 640.29C49.52 640.29 49.69 640.26 49.84 640.2C49.99 640.14 50.11 640.05 50.2 639.95C50.29 639.84 50.33 639.71 50.33 639.56C50.33 639.43 50.29 639.32 50.21 639.24C50.14 639.15 50.03 639.07 49.89 639.02C49.76 638.96 49.6 638.9 49.42 638.86L48.84 638.71C48.42 638.6 48.09 638.44 47.84 638.22C47.6 638 47.48 637.71 47.48 637.34C47.48 637.04 47.56 636.78 47.72 636.55C47.89 636.33 48.11 636.15 48.39 636.03C48.67 635.9 48.99 635.84 49.35 635.84C49.71 635.84 50.03 635.9 50.3 636.03C50.57 636.15 50.79 636.33 50.94 636.55C51.1 636.77 51.18 637.02 51.18 637.31H50.3ZM51.66 641V635.91H52.58V638.06H54.94V635.91H55.86V641H54.94V638.84H52.58V641H51.66ZM57.1 641H56.11L57.91 635.91H59.04L60.84 641H59.85L58.5 636.95H58.46L57.1 641ZM57.13 639H59.82V639.75H57.13V639ZM61.09 641V635.91H63C63.39 635.91 63.72 635.98 63.98 636.11C64.25 636.25 64.45 636.44 64.59 636.68C64.72 636.93 64.79 637.21 64.79 637.54C64.79 637.86 64.72 638.15 64.58 638.39C64.45 638.63 64.24 638.81 63.98 638.94C63.71 639.07 63.38 639.14 62.99 639.14H61.63V638.37H62.86C63.09 638.37 63.28 638.34 63.42 638.28C63.57 638.21 63.68 638.12 63.75 638C63.82 637.87 63.85 637.72 63.85 637.54C63.85 637.36 63.82 637.2 63.75 637.08C63.68 636.95 63.57 636.85 63.42 636.78C63.28 636.71 63.09 636.68 62.86 636.68H62.01V641H61.09ZM63.72 638.69L64.98 641H63.95L62.71 638.69H63.72ZM65.22 641V635.91H68.53V636.68H66.14V638.06H68.36V638.84H66.14V640.23H68.55V641H65.22Z" fill="#FFFFFE" />
<path d="M50.3 637.31L49.3 637.41L49.4 638.31H50.3V637.31ZM50 636.8L49.42 637.62L49.43 637.62L50 636.8ZM48.84 636.71L49.23 637.63L49.23 637.63L48.84 636.71ZM48.53 636.94L47.72 636.35L47.72 636.35L48.53 636.94ZM48.41 637.28L47.41 637.27V637.28H48.41ZM48.49 637.56L47.64 638.09L47.64 638.09L47.64 638.1L48.49 637.56ZM48.69 637.76L48.14 638.6L48.16 638.61L48.69 637.76ZM48.97 637.89L48.63 638.84L48.63 638.84L48.97 637.89ZM49.28 637.99L49.52 637.01L49.51 637.01L49.28 637.99ZM49.76 638.1L49.51 639.07L49.52 639.08L49.53 639.08L49.76 638.1ZM50.31 638.29L49.92 639.2L49.92 639.21L50.31 638.29ZM50.79 638.57L50.16 639.35L50.16 639.35L50.79 638.57ZM51.02 640.36L51.85 640.92L51.85 640.92L51.02 640.36ZM50.36 640.89L50.77 641.8L50.77 641.8L50.36 640.89ZM48.29 640.89L47.9 641.81L47.9 641.82L48.29 640.89ZM47.61 640.36L46.79 640.92L46.79 640.93L47.61 640.36ZM47.35 639.5V638.5H46.31L46.35 639.53L47.35 639.5ZM48.25 639.5L49.25 639.42L49.18 638.5H48.25V639.5ZM48.42 639.94L49.19 639.31L49.19 639.31L48.42 639.94ZM48.79 640.2L48.44 641.14L48.44 641.14L48.79 640.2ZM49.84 640.2L50.21 641.13L50.21 641.13L49.84 640.2ZM50.2 639.95L50.98 640.57L50.98 640.57L50.2 639.95ZM50.33 639.56L51.33 639.58L51.33 639.56L51.33 639.55L50.33 639.56ZM50.21 639.24L49.46 639.89L49.47 639.9L50.21 639.24ZM49.89 639.02L49.49 639.93L49.5 639.93L49.51 639.94L49.89 639.02ZM49.42 638.86L49.17 639.83L49.17 639.83L49.42 638.86ZM48.84 638.71L49.09 637.74L49.09 637.74L48.84 638.71ZM47.84 638.22L47.17 638.96L47.17 638.96L47.84 638.22ZM47.72 636.55L46.91 635.96L46.91 635.97L47.72 636.55ZM48.39 636.03L48.8 636.94L48.8 636.94L48.39 636.03ZM50.3 636.03L49.88 636.94L49.88 636.94L50.3 636.03ZM50.94 636.55L50.12 637.12L50.13 637.12L50.94 636.55ZM51.18 637.31V638.31H52.2L52.18 637.29L51.18 637.31ZM51.29 637.2C51.24 636.71 51 636.28 50.58 635.98L49.43 637.62C49.41 637.6 49.37 637.57 49.34 637.52C49.31 637.47 49.3 637.43 49.3 637.41L51.29 637.2ZM50.58 635.99C50.2 635.71 49.75 635.62 49.34 635.62V637.62C49.4 637.62 49.43 637.63 49.45 637.63C49.45 637.63 49.44 637.63 49.42 637.62L50.58 635.99ZM49.34 635.62C49.05 635.62 48.74 635.66 48.45 635.79L49.23 637.63C49.22 637.63 49.24 637.62 49.34 637.62V635.62ZM48.45 635.79C48.18 635.9 47.92 636.08 47.72 636.35L49.33 637.53C49.28 637.61 49.22 637.63 49.23 637.63L48.45 635.79ZM47.72 636.35C47.52 636.62 47.42 636.94 47.41 637.27L49.41 637.3C49.41 637.33 49.41 637.37 49.39 637.41C49.38 637.46 49.36 637.5 49.33 637.53L47.72 636.35ZM47.41 637.28C47.41 637.54 47.48 637.83 47.64 638.09L49.34 637.03C49.4 637.14 49.41 637.23 49.41 637.28H47.41ZM47.64 638.1C47.78 638.31 47.95 638.47 48.14 638.6L49.23 636.92C49.26 636.93 49.3 636.97 49.33 637.02L47.64 638.1ZM48.16 638.61C48.31 638.7 48.47 638.78 48.63 638.84L49.3 636.95C49.26 636.94 49.24 636.92 49.22 636.91L48.16 638.61ZM48.63 638.84C48.77 638.88 48.91 638.92 49.05 638.96L49.51 637.01C49.44 637 49.37 636.98 49.3 636.95L48.63 638.84ZM49.04 638.96L49.51 639.07L50 637.13L49.52 637.01L49.04 638.96ZM49.53 639.08C49.67 639.11 49.79 639.15 49.92 639.2L50.71 637.37C50.47 637.27 50.23 637.19 49.98 637.13L49.53 639.08ZM49.92 639.21C50.02 639.25 50.09 639.29 50.16 639.35L51.43 637.8C51.21 637.62 50.96 637.48 50.7 637.37L49.92 639.21ZM50.16 639.35C50.19 639.38 50.22 639.41 50.24 639.45L52.02 638.54C51.88 638.25 51.67 638 51.42 637.8L50.16 639.35ZM50.24 639.45C50.24 639.45 50.24 639.45 50.24 639.47C50.25 639.49 50.25 639.52 50.25 639.57H52.25C52.25 639.23 52.19 638.87 52.02 638.54L50.24 639.45ZM50.25 639.57C50.25 639.69 50.23 639.75 50.19 639.8L51.85 640.92C52.13 640.51 52.25 640.05 52.25 639.57H50.25ZM50.2 639.8C50.16 639.85 50.1 639.91 49.96 639.97L50.77 641.8C51.2 641.61 51.58 641.32 51.85 640.92L50.2 639.8ZM49.96 639.97C49.83 640.03 49.63 640.08 49.32 640.08V642.08C49.83 642.08 50.32 642 50.77 641.8L49.96 639.97ZM49.32 640.08C49.03 640.08 48.82 640.03 48.68 639.97L47.9 641.82C48.34 642 48.83 642.08 49.32 642.08V640.08ZM48.68 639.97C48.55 639.91 48.48 639.85 48.43 639.78L46.79 640.93C47.07 641.33 47.45 641.63 47.9 641.81L48.68 639.97ZM48.43 639.79C48.4 639.74 48.35 639.64 48.34 639.46L46.35 639.53C46.37 640.03 46.5 640.51 46.79 640.92L48.43 639.79ZM47.35 640.5H48.25V638.5H47.35V640.5ZM47.26 639.57C47.28 639.92 47.4 640.27 47.64 640.57L49.19 639.31C49.22 639.34 49.23 639.37 49.24 639.39C49.25 639.42 49.25 639.43 49.25 639.42L47.26 639.57ZM47.64 640.57C47.86 640.84 48.14 641.02 48.44 641.14L49.14 639.27C49.14 639.26 49.15 639.27 49.16 639.27C49.17 639.28 49.18 639.29 49.19 639.31L47.64 640.57ZM48.44 641.14C48.73 641.25 49.02 641.29 49.31 641.29V639.29C49.22 639.29 49.17 639.27 49.14 639.26L48.44 641.14ZM49.31 641.29C49.61 641.29 49.92 641.25 50.21 641.13L49.47 639.27C49.46 639.27 49.42 639.29 49.31 639.29V641.29ZM50.21 641.13C50.5 641.01 50.77 640.84 50.98 640.57L49.42 639.32C49.44 639.3 49.46 639.28 49.47 639.27C49.48 639.27 49.48 639.27 49.47 639.27L50.21 641.13ZM50.98 640.57C51.21 640.27 51.33 639.93 51.33 639.58L49.33 639.55C49.33 639.53 49.34 639.49 49.35 639.44C49.37 639.4 49.39 639.36 49.41 639.33L50.98 640.57ZM51.33 639.55C51.33 639.22 51.22 638.87 50.96 638.57L49.47 639.9C49.42 639.84 49.38 639.78 49.36 639.72C49.34 639.65 49.33 639.6 49.33 639.58L51.33 639.55ZM50.97 638.58C50.77 638.35 50.52 638.2 50.28 638.1L49.51 639.94C49.54 639.95 49.51 639.95 49.46 639.89L50.97 638.58ZM50.3 638.1C50.1 638.01 49.89 637.95 49.66 637.89L49.17 639.83C49.31 639.86 49.42 639.9 49.49 639.93L50.3 638.1ZM49.67 637.89L49.09 637.74L48.59 639.68L49.17 639.83L49.67 637.89ZM49.09 637.74C48.77 637.66 48.6 637.56 48.51 637.47L47.17 638.96C47.57 639.32 48.06 639.54 48.59 639.68L49.09 637.74ZM48.52 637.48C48.5 637.47 48.5 637.46 48.49 637.45C48.49 637.44 48.48 637.41 48.48 637.34H46.48C46.48 637.95 46.69 638.52 47.17 638.96L48.52 637.48ZM48.48 637.34C48.48 637.23 48.51 637.18 48.53 637.14L46.91 635.97C46.62 636.38 46.48 636.85 46.48 637.34H48.48ZM48.53 637.14C48.58 637.07 48.66 637 48.8 636.94L47.99 635.11C47.56 635.3 47.19 635.58 46.91 635.96L48.53 637.14ZM48.8 636.94C48.94 636.88 49.11 636.84 49.35 636.84V634.84C48.87 634.84 48.41 634.92 47.98 635.12L48.8 636.94ZM49.35 636.84C49.59 636.84 49.76 636.88 49.88 636.94L50.72 635.12C50.29 634.92 49.83 634.84 49.35 634.84V636.84ZM49.88 636.94C50.01 637 50.08 637.06 50.12 637.12L51.76 635.97C51.49 635.59 51.13 635.31 50.71 635.12L49.88 636.94ZM50.13 637.12C50.16 637.17 50.18 637.23 50.18 637.33L52.18 637.29C52.18 636.82 52.04 636.37 51.76 635.97L50.13 637.12ZM51.18 636.31H50.3V638.31H51.18V636.31ZM51.66 641H50.66V642H51.66V641ZM51.66 635.91V634.91H50.66V635.91H51.66ZM52.58 635.91H53.58V634.91H52.58V635.91ZM52.58 638.06H51.58V639.06H52.58V638.06ZM54.94 638.06V639.06H55.94V638.06H54.94ZM54.94 635.91V634.91H53.94V635.91H54.94ZM55.86 635.91H56.86V634.91H55.86V635.91ZM55.86 641V642H56.86V641H55.86ZM54.94 641H53.94V642H54.94V641ZM54.94 638.84H55.94V637.84H54.94V638.84ZM52.58 638.84V637.84H51.58V638.84H52.58ZM52.58 641V642H53.58V641H52.58ZM52.66 641V635.91H50.66V641H52.66ZM51.66 636.91H52.58V634.91H51.66V636.91ZM51.58 635.91V638.06H53.58V635.91H51.58ZM52.58 639.06H54.94V637.06H52.58V639.06ZM55.94 638.06V635.91H53.94V638.06H55.94ZM54.94 636.91H55.86V634.91H54.94V636.91ZM54.86 635.91V641H56.86V635.91H54.86ZM55.86 640H54.94V642H55.86V640ZM55.94 641V638.84H53.94V641H55.94ZM54.94 637.84H52.58V639.84H54.94V637.84ZM51.58 638.84V641H53.58V638.84H51.58ZM52.58 640H51.66V642H52.58V640ZM57.1 641V642H57.82L58.05 641.32L57.1 641ZM56.11 641L55.17 640.67L54.7 642H56.11V641ZM57.91 635.91V634.91H57.2L56.96 635.58L57.91 635.91ZM59.04 635.91L59.99 635.58L59.75 634.91H59.04V635.91ZM60.84 641V642H62.25L61.78 640.67L60.84 641ZM59.85 641L58.91 641.32L59.14 642H59.85V641ZM58.5 636.95L59.44 636.63L59.21 635.95H58.5V636.95ZM58.46 636.95V635.95H57.74L57.51 636.63L58.46 636.95ZM57.13 639V638H56.13V639H57.13ZM59.82 639H60.82V638H59.82V639ZM59.82 639.75V640.75H60.82V639.75H59.82ZM57.13 639.75H56.13V640.75H57.13V639.75ZM57.1 640H56.11V642H57.1V640ZM57.06 641.33L58.85 636.24L56.96 635.58L55.17 640.67L57.06 641.33ZM57.91 636.91H59.04V634.91H57.91V636.91ZM58.1 636.24L59.9 641.33L61.78 640.67L59.99 635.58L58.1 636.24ZM60.84 640H59.85V642H60.84V640ZM60.8 640.68L59.44 636.63L57.55 637.27L58.91 641.32L60.8 640.68ZM58.5 635.95H58.46V637.95H58.5V635.95ZM57.51 636.63L56.15 640.68L58.05 641.32L59.4 637.27L57.51 636.63ZM57.13 640H59.82V638H57.13V640ZM58.82 639V639.75H60.82V639H58.82ZM59.82 638.75H57.13V640.75H59.82V638.75ZM58.13 639.75V639H56.13V639.75H58.13ZM61.09 641H60.09V642H61.09V641ZM61.09 635.91V634.91H60.09V635.91H61.09ZM63.98 636.11L63.53 637L63.53 637L63.98 636.11ZM64.59 636.68L63.71 637.17L63.72 637.18L64.59 636.68ZM64.58 638.39L63.72 637.89L63.72 637.89L64.58 638.39ZM63.98 638.94L64.41 639.84L64.41 639.84L63.98 638.94ZM61.63 639.14H60.63V640.14H61.63V639.14ZM61.63 638.37V637.37H60.63V638.37H61.63ZM63.42 638.28L63.82 639.19L63.83 639.19L63.42 638.28ZM63.75 638L62.88 637.5L62.88 637.5L63.75 638ZM63.75 637.08L62.87 637.56L62.87 637.56L63.75 637.08ZM63.42 636.78L63 637.69L63.01 637.69L63.42 636.78ZM62.01 636.68V635.68H61.01V636.68H62.01ZM62.01 641V642H63.01V641H62.01ZM63.72 638.69L64.6 638.21L64.31 637.69H63.72V638.69ZM64.98 641V642H66.67L65.86 640.52L64.98 641ZM63.95 641L63.07 641.47L63.35 642H63.95V641ZM62.71 638.69V637.69H61.04L61.83 639.17L62.71 638.69ZM62.09 641V635.91H60.09V641H62.09ZM61.09 636.91H63V634.91H61.09V636.91ZM63 636.91C63.28 636.91 63.44 636.96 63.53 637L64.44 635.22C64 635 63.5 634.91 63 634.91V636.91ZM63.53 637C63.63 637.06 63.68 637.11 63.71 637.17L65.46 636.2C65.22 635.77 64.87 635.44 64.44 635.22L63.53 637ZM63.72 637.18C63.76 637.25 63.79 637.36 63.79 637.54H65.79C65.79 637.07 65.69 636.61 65.46 636.19L63.72 637.18ZM63.79 637.54C63.79 637.72 63.76 637.82 63.72 637.89L65.45 638.89C65.69 638.47 65.79 638.01 65.79 637.54H63.79ZM63.72 637.89C63.69 637.94 63.64 637.99 63.54 638.04L64.41 639.84C64.85 639.63 65.21 639.31 65.45 638.89L63.72 637.89ZM63.54 638.04C63.44 638.09 63.27 638.14 62.99 638.14V640.14C63.48 640.14 63.97 640.05 64.41 639.84L63.54 638.04ZM62.99 638.14H61.63V640.14H62.99V638.14ZM62.63 639.14V638.37H60.63V639.14H62.63ZM61.63 639.37H62.86V637.37H61.63V639.37ZM62.86 639.37C63.17 639.37 63.51 639.33 63.82 639.19L63.03 637.36C63.04 637.35 63.04 637.36 63.01 637.36C62.98 637.37 62.93 637.37 62.86 637.37V639.37ZM63.83 639.19C64.14 639.05 64.43 638.82 64.62 638.49L62.88 637.5C62.9 637.46 62.93 637.43 62.96 637.4C62.99 637.38 63.01 637.37 63.02 637.36L63.83 639.19ZM64.61 638.49C64.79 638.18 64.85 637.85 64.85 637.54H62.85C62.85 637.56 62.85 637.57 62.85 637.56C62.86 637.55 62.86 637.53 62.88 637.5L64.61 638.49ZM64.85 637.54C64.85 637.23 64.79 636.89 64.62 636.59L62.87 637.56C62.86 637.54 62.85 637.52 62.85 637.51C62.85 637.5 62.85 637.51 62.85 637.54H64.85ZM64.62 636.59C64.44 636.26 64.16 636.02 63.84 635.87L63.01 637.69C63 637.69 62.97 637.67 62.94 637.65C62.91 637.62 62.89 637.59 62.87 637.56L64.62 636.59ZM63.84 635.88C63.52 635.73 63.18 635.68 62.86 635.68V637.68C62.92 637.68 62.97 637.68 62.99 637.69C63.02 637.69 63.02 637.7 63 637.69L63.84 635.88ZM62.86 635.68H62.01V637.68H62.86V635.68ZM61.01 636.68V641H63.01V636.68H61.01ZM62.01 640H61.09V642H62.01V640ZM62.84 639.17L64.1 641.48L65.86 640.52L64.6 638.21L62.84 639.17ZM64.98 640H63.95V642H64.98V640ZM64.83 640.53L63.59 638.22L61.83 639.17L63.07 641.47L64.83 640.53ZM62.71 639.69H63.72V637.69H62.71V639.69ZM65.22 641H64.22V642H65.22V641ZM65.22 635.91V634.91H64.22V635.91H65.22ZM68.53 635.91H69.53V634.91H68.53V635.91ZM68.53 636.68V637.68H69.53V636.68H68.53ZM66.14 636.68V635.68H65.14V636.68H66.14ZM66.14 638.06H65.14V639.06H66.14V638.06ZM68.36 638.06H69.36V637.06H68.36V638.06ZM68.36 638.84V639.84H69.36V638.84H68.36ZM66.14 638.84V637.84H65.14V638.84H66.14ZM66.14 640.23H65.14V641.23H66.14V640.23ZM68.55 640.23H69.55V639.23H68.55V640.23ZM68.55 641V642H69.55V641H68.55ZM66.22 641V635.91H64.22V641H66.22ZM65.22 636.91H68.53V634.91H65.22V636.91ZM67.53 635.91V636.68H69.53V635.91H67.53ZM68.53 635.68H66.14V637.68H68.53V635.68ZM65.14 636.68V638.06H67.14V636.68H65.14ZM66.14 639.06H68.36V637.06H66.14V639.06ZM67.36 638.06V638.84H69.36V638.06H67.36ZM68.36 637.84H66.14V639.84H68.36V637.84ZM65.14 638.84V640.23H67.14V638.84H65.14ZM66.14 641.23H68.55V639.23H66.14V641.23ZM67.55 640.23V641H69.55V640.23H67.55ZM68.55 640H65.22V642H68.55V640Z" fill="#232323" mask="url(#path-30-outside-2_401_4614)" />
</g></svg>