<?xml version="1.0" encoding="UTF-8"?>
<svg xmlns="http://www.w3.org/2000/svg" width="32" height="32" viewBox="0 0 32.000000 32.000000" fill="none"><g transform="translate(-84.000000,-84.000000)">
<path d="M113 84.5H92C90.62 84.5 89.5 85.62 89.5 87V87.01V87.02V87.03V87.05V87.06V87.07V87.09V87.1V87.11V87.13V87.14V87.15V87.17V87.18V87.19V87.2V87.22V87.23V87.24V87.26V87.27V87.28V87.3V87.31V87.32V87.34V87.35V87.37V87.38V87.39V87.41V87.42V87.43V87.45V87.46V87.48V87.49V87.5V87.52V87.53V87.54V87.56V87.57V87.59V87.6V87.61V87.63V87.64V87.66V87.67V87.69V87.7V87.71V87.73V87.74V87.76V87.77V87.79V87.8V87.81V87.83V87.84V87.86V87.87V87.89V87.9V87.92V87.93V87.95V87.96V87.98V87.99V88.01V88.02V88.04V88.05V88.07V88.08V88.1V88.11V88.13V88.14V88.16V88.17V88.19V88.2V88.22V88.23V88.25V88.26V88.28V88.29V88.31V88.33V88.34V88.36V88.37V88.39V88.4V88.42V88.43V88.45V88.47V88.48V88.5V88.51V88.53V88.55V88.56V88.58V88.59V88.61V88.63V88.64V88.66V88.67V88.69V88.71V88.72V88.74V88.75V88.77V88.79V88.8V88.82V88.84V88.85V88.87V88.89V88.9V88.92V88.94V88.95V88.97V88.99V89V89.02V89.04V89.05V89.07V89.09V89.1V89.12V89.14V89.15V89.17V89.19V89.21V89.22V89.24V89.26V89.27V89.29V89.31V89.33V89.34V89.36V89.38V89.4V89.41V89.43V89.45V89.47V89.48V89.5V89.52V89.54V89.55V89.57V89.59V89.61V89.63V89.64V89.66V89.68V89.7V89.72V89.73V89.75V89.77V89.79V89.81V89.82V89.84V89.86V89.88V89.9V89.91V89.93V89.95V89.97V89.99V90.01V90.03V90.04V90.06V90.08V90.1V90.12V90.14V90.16V90.17V90.19V90.21V90.23V90.25V90.27V90.29V90.31V90.33V90.34V90.36V90.38V90.4V90.42V90.44V90.46V90.48V90.5V90.52V90.54V90.56V90.58V90.59V90.61V90.63V90.65V90.67V90.69V90.71V90.73V90.75V90.77V90.79V90.81V90.83V90.85V90.87V90.89V90.91V90.93V90.95V90.97V90.99V91.01V91.03V91.05V91.07V91.09V91.11V91.13V91.15V91.17V91.19V91.21V91.23V91.25V91.27V91.29V91.31V91.33V91.35V91.38V91.4V91.42V91.44V91.46V91.48V91.5V91.52V91.54V91.56V91.58V91.6V91.63V91.65V91.67V91.69V91.71V91.73V91.75V91.77V91.79V91.82V91.84V91.86V91.88V91.9V91.92V91.94V91.97V91.99V92.01V92.03V92.05V92.07V92.09V92.12V92.14V92.16V92.18V92.2V92.23V92.25V92.27V92.29V92.31V92.34V92.36V92.38V92.4V92.42V92.45V92.47V92.49V92.51V92.54V92.56V92.58V92.6V92.62V92.65V92.67V92.69V92.71V92.74V92.76V92.78V92.81V92.83V92.85V92.87V92.9V92.92V92.94V92.97V92.99V93.01V93.03V93.06V93.08V93.1V93.13V93.15V93.17V93.2V93.22V93.24V93.27V93.29V93.31V93.34V93.36V93.38V93.41V93.43V93.45V93.48V93.5V93.52V93.55V93.57V93.6V93.62V93.64V93.67V93.69V93.72V93.74V93.76V93.79V93.81V93.84V93.86V93.88V93.91V93.93V93.96V93.98V94V94.03V94.05V94.08V94.1V94.13V94.15V94.18V94.2V94.22V94.25V94.27V94.3V94.32V94.35V94.37V94.4V94.42V94.45V94.47V94.5V94.52V94.55V94.57V94.6V94.62V94.65V94.67V94.7V94.72V94.75V94.77V94.8V94.83V94.85V94.88V94.9V94.93V94.95V94.98V95V95.03V95.06V95.08V95.11V95.13V95.16V95.18V95.21V95.24V95.26V95.29V95.31V95.34V95.37V95.39V95.42V95.44V95.47V95.5V95.52V95.55V95.58V95.6V95.63V95.65V95.68V95.71V95.73V95.76V95.79V95.81V95.84V95.87V95.89V95.92V95.95V95.97V96V96.03V96.05V96.08V96.11V96.14V96.16V96.19V96.22V96.24V96.27V96.3V96.33V96.35V96.38V96.41V96.44V96.46V96.49V96.52V96.55V96.57V96.6V96.63V96.66V96.68V96.71V96.74V96.77V96.79V96.82V96.85V96.88V96.91V96.93V96.96V96.99V97.02V97.05V97.07V97.1V97.13V97.16V97.19V97.22V97.24V97.27V97.3V97.33V97.36V97.39V97.41V97.44V97.47V97.5C89.5 102.35 88.22 105.44 86.94 107.74C86.63 108.3 86.32 108.81 86.03 109.29L86.01 109.32C85.72 109.81 85.45 110.25 85.22 110.67C84.77 111.52 84.5 112.25 84.5 113C84.5 114.38 85.62 115.5 87 115.5H104C110.35 115.5 115.5 110.35 115.5 104V87C115.5 85.62 114.38 84.5 113 84.5Z" fill="#2A2A2A" stroke="#232323" />
<path d="M92.86 106V92.91H95.63V103.72H101.24V106H92.86ZM103 106V104.01L107.66 99.69C108.06 99.31 108.39 98.96 108.66 98.66C108.93 98.35 109.14 98.05 109.28 97.75C109.42 97.46 109.49 97.13 109.49 96.79C109.49 96.41 109.4 96.08 109.22 95.8C109.05 95.52 108.81 95.3 108.51 95.15C108.21 95 107.86 94.92 107.48 94.92C107.08 94.92 106.73 95 106.43 95.17C106.13 95.33 105.9 95.56 105.74 95.86C105.58 96.17 105.5 96.53 105.5 96.94H102.87C102.87 96.09 103.06 95.34 103.45 94.71C103.84 94.08 104.38 93.59 105.08 93.25C105.78 92.9 106.59 92.73 107.5 92.73C108.44 92.73 109.25 92.9 109.95 93.23C110.65 93.56 111.19 94.01 111.58 94.6C111.96 95.18 112.16 95.85 112.16 96.6C112.16 97.1 112.06 97.59 111.86 98.07C111.67 98.55 111.33 99.08 110.83 99.67C110.34 100.26 109.64 100.96 108.75 101.78L106.83 103.65V103.74H112.33V106H103Z" fill="#FFFFFE" />
</g></svg>