<?xml version="1.0" encoding="UTF-8"?>
<svg xmlns="http://www.w3.org/2000/svg" width="32" height="32" viewBox="0 0 32.000000 32.000000" fill="none"><g transform="translate(-42.000000,-0.000000)">
<circle cx="58" cy="16" r="11.5" fill="#2A2A2A" stroke="#232323" />
<mask id="path-24-outside-5_401_1984" maskUnits="userSpaceOnUse" x="54" y="10" width="10" height="13" fill="black">
<rect fill="white" x="54" y="10" width="10" height="13" />
<path d="M54.39 22V10.36H58.84C59.69 10.36 60.38 10.5 60.94 10.76C61.5 11.02 61.92 11.38 62.2 11.84C62.48 12.29 62.62 12.8 62.62 13.38C62.62 13.85 62.53 14.26 62.34 14.6C62.16 14.93 61.92 15.2 61.61 15.41C61.3 15.62 60.96 15.77 60.58 15.86V15.97C61 15.99 61.39 16.12 61.77 16.35C62.15 16.58 62.47 16.9 62.71 17.32C62.95 17.73 63.07 18.24 63.07 18.83C63.07 19.43 62.93 19.97 62.63 20.45C62.34 20.93 61.9 21.31 61.32 21.59C60.73 21.86 59.99 22 59.1 22H54.39ZM56.5 20.24H58.76C59.53 20.24 60.08 20.09 60.42 19.8C60.76 19.51 60.93 19.13 60.93 18.66C60.93 18.32 60.84 18.01 60.67 17.73C60.5 17.45 60.26 17.23 59.95 17.07C59.63 16.91 59.26 16.83 58.82 16.83H56.5V20.24ZM56.5 15.31H58.58C58.95 15.31 59.27 15.25 59.57 15.11C59.86 14.98 60.09 14.79 60.25 14.54C60.42 14.29 60.51 13.99 60.51 13.65C60.51 13.2 60.35 12.83 60.03 12.54C59.72 12.25 59.25 12.1 58.63 12.1H56.5V15.31Z" />
</mask>
<path d="M54.39 22V10.36H58.84C59.69 10.36 60.38 10.5 60.94 10.76C61.5 11.02 61.92 11.38 62.2 11.84C62.48 12.29 62.62 12.8 62.62 13.38C62.62 13.85 62.53 14.26 62.34 14.6C62.16 14.93 61.92 15.2 61.61 15.41C61.3 15.62 60.96 15.77 60.58 15.86V15.97C61 15.99 61.39 16.12 61.77 16.35C62.15 16.58 62.47 16.9 62.71 17.32C62.95 17.73 63.07 18.24 63.07 18.83C63.07 19.43 62.93 19.97 62.63 20.45C62.34 20.93 61.9 21.31 61.32 21.59C60.73 21.86 59.99 22 59.1 22H54.39ZM56.5 20.24H58.76C59.53 20.24 60.08 20.09 60.42 19.8C60.76 19.51 60.93 19.13 60.93 18.66C60.93 18.32 60.84 18.01 60.67 17.73C60.5 17.45 60.26 17.23 59.95 17.07C59.63 16.91 59.26 16.83 58.82 16.83H56.5V20.24ZM56.5 15.31H58.58C58.95 15.31 59.27 15.25 59.57 15.11C59.86 14.98 60.09 14.79 60.25 14.54C60.42 14.29 60.51 13.99 60.51 13.65C60.51 13.2 60.35 12.83 60.03 12.54C59.72 12.25 59.25 12.1 58.63 12.1H56.5V15.31Z" fill="#C32F2F" />
<path d="M54.39 22H54.19C54.19 22.11 54.28 22.2 54.39 22.2V22ZM54.39 10.36V10.16C54.28 10.16 54.19 10.25 54.19 10.36H54.39ZM60.94 10.76L60.86 10.94L60.86 10.94L60.94 10.76ZM62.2 11.84L62.03 11.94L62.03 11.94L62.2 11.84ZM62.34 14.6L62.52 14.69L62.52 14.69L62.34 14.6ZM61.61 15.41L61.5 15.24V15.24L61.61 15.41ZM60.58 15.86L60.54 15.66C60.45 15.69 60.38 15.77 60.38 15.86H60.58ZM60.58 15.97H60.38C60.38 16.08 60.47 16.17 60.57 16.17L60.58 15.97ZM61.77 16.35L61.67 16.52L61.67 16.52L61.77 16.35ZM62.71 17.32L62.54 17.42L62.71 17.32ZM62.63 20.45L62.8 20.56L62.81 20.56L62.63 20.45ZM61.32 21.59L61.23 21.4L61.32 21.59ZM56.5 20.24H56.3C56.3 20.35 56.39 20.44 56.5 20.44V20.24ZM60.42 19.8L60.55 19.95L60.55 19.95L60.42 19.8ZM60.67 17.73L60.5 17.84L60.5 17.84L60.67 17.73ZM59.95 17.07L59.85 17.25L59.86 17.25L59.95 17.07ZM56.5 16.83V16.63C56.39 16.63 56.3 16.72 56.3 16.83H56.5ZM56.5 15.31H56.3C56.3 15.42 56.39 15.51 56.5 15.51V15.31ZM59.57 15.11L59.65 15.3L59.65 15.29L59.57 15.11ZM60.25 14.54L60.09 14.43L60.09 14.43L60.25 14.54ZM60.03 12.54L59.9 12.69L59.9 12.69L60.03 12.54ZM56.5 12.1V11.9C56.39 11.9 56.3 11.99 56.3 12.1H56.5ZM54.59 22V10.36H54.19V22H54.59ZM54.39 10.56H58.84V10.16H54.39V10.56ZM58.84 10.56C59.67 10.56 60.33 10.69 60.86 10.94L61.03 10.58C60.44 10.3 59.7 10.16 58.84 10.16V10.56ZM60.86 10.94C61.39 11.19 61.77 11.52 62.03 11.94L62.37 11.73C62.07 11.24 61.62 10.86 61.03 10.58L60.86 10.94ZM62.03 11.94C62.29 12.36 62.42 12.84 62.42 13.38H62.82C62.82 12.77 62.67 12.22 62.37 11.73L62.03 11.94ZM62.42 13.38C62.42 13.83 62.33 14.2 62.17 14.5L62.52 14.69C62.72 14.32 62.82 13.88 62.82 13.38H62.42ZM62.17 14.5C62 14.81 61.78 15.05 61.5 15.24L61.72 15.57C62.06 15.35 62.32 15.05 62.52 14.69L62.17 14.5ZM61.5 15.24C61.21 15.44 60.89 15.58 60.54 15.66L60.63 16.05C61.03 15.96 61.4 15.8 61.72 15.57L61.5 15.24ZM60.38 15.86V15.97H60.78V15.86H60.38ZM60.57 16.17C60.95 16.19 61.31 16.31 61.67 16.52L61.87 16.18C61.47 15.93 61.04 15.8 60.59 15.77L60.57 16.17ZM61.67 16.52C62.02 16.73 62.31 17.03 62.54 17.42L62.88 17.22C62.62 16.77 62.29 16.43 61.87 16.18L61.67 16.52ZM62.54 17.42C62.76 17.8 62.87 18.27 62.87 18.83H63.27C63.27 18.21 63.14 17.67 62.88 17.22L62.54 17.42ZM62.87 18.83C62.87 19.4 62.73 19.9 62.46 20.35L62.81 20.56C63.12 20.04 63.27 19.47 63.27 18.83H62.87ZM62.46 20.35C62.2 20.79 61.79 21.14 61.23 21.4L61.4 21.77C62.02 21.48 62.49 21.07 62.8 20.56L62.46 20.35ZM61.23 21.4C60.68 21.66 59.97 21.8 59.1 21.8V22.2C60.01 22.2 60.78 22.06 61.4 21.77L61.23 21.4ZM59.1 21.8H54.39V22.2H59.1V21.8ZM56.5 20.44H58.76V20.04H56.5V20.44ZM58.76 20.44C59.55 20.44 60.16 20.29 60.55 19.95L60.29 19.65C60.01 19.89 59.51 20.04 58.76 20.04V20.44ZM60.55 19.95C60.94 19.62 61.13 19.18 61.13 18.66H60.73C60.73 19.07 60.58 19.39 60.29 19.65L60.55 19.95ZM61.13 18.66C61.13 18.29 61.04 17.94 60.84 17.63L60.5 17.84C60.65 18.08 60.73 18.35 60.73 18.66H61.13ZM60.84 17.63C60.65 17.31 60.38 17.07 60.04 16.9L59.86 17.25C60.14 17.4 60.35 17.59 60.5 17.84L60.84 17.63ZM60.04 16.9C59.69 16.72 59.28 16.63 58.82 16.63V17.03C59.23 17.03 59.57 17.11 59.85 17.25L60.04 16.9ZM58.82 16.63H56.5V17.03H58.82V16.63ZM56.3 16.83V20.24H56.7V16.83H56.3ZM56.5 15.51H58.58V15.11H56.5V15.51ZM58.58 15.51C58.97 15.51 59.33 15.44 59.65 15.3L59.48 14.93C59.22 15.05 58.92 15.11 58.58 15.11V15.51ZM59.65 15.29C59.97 15.14 60.23 14.93 60.42 14.65L60.09 14.43C59.94 14.64 59.74 14.81 59.48 14.93L59.65 15.29ZM60.42 14.65C60.61 14.37 60.71 14.03 60.71 13.65H60.31C60.31 13.96 60.23 14.21 60.09 14.43L60.42 14.65ZM60.71 13.65C60.71 13.15 60.53 12.72 60.17 12.39L59.9 12.69C60.17 12.94 60.31 13.26 60.31 13.65H60.71ZM60.17 12.39C59.8 12.05 59.28 11.9 58.63 11.9V12.3C59.22 12.3 59.63 12.44 59.9 12.69L60.17 12.39ZM58.63 11.9H56.5V12.3H58.63V11.9ZM56.3 12.1V15.31H56.7V12.1H56.3Z" fill="#C32F2F" mask="url(#path-24-outside-5_401_1984)" />
</g></svg>