<?xml version="1.0" encoding="UTF-8"?>
<svg xmlns="http://www.w3.org/2000/svg" width="32" height="32" viewBox="0 0 32.000000 32.000000" fill="none"><g transform="translate(-126.000000,-0.000000)">
<circle cx="142" cy="16" r="11.5" fill="#2A2A2A" stroke="#232323" />
<mask id="path-36-outside-9_401_1984" maskUnits="userSpaceOnUse" x="136" y="10" width="12" height="13" fill="black">
<rect fill="white" x="136" y="10" width="12" height="13" />
<path d="M139.39 10.36L141.95 14.62H142.04L144.61 10.36H147.02L143.43 16.18L147.07 22H144.63L142.04 17.77H141.95L139.36 22H136.93L140.6 16.18L136.97 10.36H139.39Z" />
</mask>
<path d="M139.39 10.36L141.95 14.62H142.04L144.61 10.36H147.02L143.43 16.18L147.07 22H144.63L142.04 17.77H141.95L139.36 22H136.93L140.6 16.18L136.97 10.36H139.39Z" fill="#246FC6" />
<path d="M139.39 10.36L139.56 10.26C139.52 10.2 139.46 10.16 139.39 10.16V10.36ZM141.95 14.62L141.78 14.73C141.81 14.79 141.88 14.82 141.95 14.82V14.62ZM142.04 14.62V14.82C142.11 14.82 142.17 14.79 142.21 14.73L142.04 14.62ZM144.61 10.36V10.16C144.54 10.16 144.48 10.2 144.44 10.26L144.61 10.36ZM147.02 10.36L147.19 10.47C147.22 10.41 147.23 10.33 147.19 10.27C147.16 10.2 147.09 10.16 147.02 10.16V10.36ZM143.43 16.18L143.26 16.08C143.22 16.14 143.22 16.22 143.26 16.29L143.43 16.18ZM147.07 22V22.2C147.15 22.2 147.21 22.16 147.25 22.1C147.28 22.03 147.28 21.96 147.24 21.89L147.07 22ZM144.63 22L144.46 22.1C144.5 22.16 144.56 22.2 144.63 22.2V22ZM142.04 17.77L142.21 17.66C142.17 17.6 142.11 17.57 142.04 17.57V17.77ZM141.95 17.77V17.57C141.88 17.57 141.81 17.6 141.78 17.66L141.95 17.77ZM139.36 22V22.2C139.43 22.2 139.49 22.16 139.53 22.1L139.36 22ZM136.93 22L136.76 21.89C136.72 21.95 136.72 22.03 136.75 22.1C136.78 22.16 136.85 22.2 136.93 22.2V22ZM140.6 16.18L140.77 16.29C140.81 16.22 140.81 16.14 140.77 16.08L140.6 16.18ZM136.97 10.36V10.16C136.9 10.16 136.83 10.2 136.8 10.27C136.76 10.33 136.76 10.41 136.8 10.47L136.97 10.36ZM139.21 10.47L141.78 14.73L142.12 14.52L139.56 10.26L139.21 10.47ZM141.95 14.82H142.04V14.43H141.95V14.82ZM142.21 14.73L144.78 10.47L144.44 10.26L141.87 14.52L142.21 14.73ZM144.61 10.56H147.02V10.16H144.61V10.56ZM146.85 10.26L143.26 16.08L143.6 16.29L147.19 10.47L146.85 10.26ZM143.26 16.29L146.9 22.11L147.24 21.89L143.6 16.08L143.26 16.29ZM147.07 21.8H144.63V22.2H147.07V21.8ZM144.8 21.9L142.21 17.66L141.87 17.87L144.46 22.1L144.8 21.9ZM142.04 17.57H141.95V17.97H142.04V17.57ZM141.78 17.66L139.19 21.9L139.53 22.1L142.12 17.87L141.78 17.66ZM139.36 21.8H136.93V22.2H139.36V21.8ZM137.09 22.11L140.77 16.29L140.43 16.07L136.76 21.89L137.09 22.11ZM140.77 16.08L137.14 10.26L136.8 10.47L140.43 16.29L140.77 16.08ZM136.97 10.56H139.39V10.16H136.97V10.56Z" fill="#246FC6" mask="url(#path-36-outside-9_401_1984)" />
</g></svg>