<?xml version="1.0" encoding="UTF-8"?>
<svg xmlns="http://www.w3.org/2000/svg" width="32" height="32" viewBox="0 0 32.000000 32.000000" fill="none"><g transform="translate(-84.000000,-0.000000)">
<circle cx="100" cy="16" r="11.5" fill="#2A2A2A" stroke="#232323" />
<mask id="path-18-outside-3_401_1984" maskUnits="userSpaceOnUse" x="94" y="10" width="12" height="13" fill="black">
<rect fill="white" x="94" y="10" width="12" height="13" />
<path d="M96.85 22H94.6L98.7 10.36H101.3L105.4 22H103.15L100.05 12.75H99.96L96.85 22ZM96.93 17.44H103.06V19.13H96.93V17.44Z" />
</mask>
<path d="M96.85 22H94.6L98.7 10.36H101.3L105.4 22H103.15L100.05 12.75H99.96L96.85 22ZM96.93 17.44H103.06V19.13H96.93V17.44Z" fill="#5EAB4A" />
<path d="M96.85 22V22.2C96.94 22.2 97.02 22.15 97.04 22.06L96.85 22ZM94.6 22L94.41 21.93C94.39 21.99 94.4 22.06 94.44 22.12C94.48 22.17 94.54 22.2 94.6 22.2V22ZM98.7 10.36V10.16C98.61 10.16 98.54 10.22 98.51 10.3L98.7 10.36ZM101.3 10.36L101.49 10.3C101.46 10.22 101.39 10.16 101.3 10.16V10.36ZM105.4 22V22.2C105.47 22.2 105.53 22.17 105.57 22.12C105.61 22.06 105.61 21.99 105.59 21.93L105.4 22ZM103.15 22L102.97 22.06C102.99 22.15 103.07 22.2 103.15 22.2V22ZM100.05 12.75L100.24 12.69C100.21 12.6 100.13 12.55 100.05 12.55V12.75ZM99.96 12.75V12.55C99.87 12.55 99.79 12.6 99.77 12.69L99.96 12.75ZM96.93 17.44V17.24C96.82 17.24 96.73 17.33 96.73 17.44H96.93ZM103.06 17.44H103.26C103.26 17.33 103.17 17.24 103.06 17.24V17.44ZM103.06 19.13V19.33C103.17 19.33 103.26 19.24 103.26 19.13H103.06ZM96.93 19.13H96.73C96.73 19.24 96.82 19.33 96.93 19.33V19.13ZM96.85 21.8H94.6V22.2H96.85V21.8ZM94.79 22.07L98.89 10.43L98.51 10.3L94.41 21.93L94.79 22.07ZM98.7 10.56H101.3V10.16H98.7V10.56ZM101.11 10.43L105.22 22.07L105.59 21.93L101.49 10.3L101.11 10.43ZM105.4 21.8H103.15V22.2H105.4V21.8ZM103.34 21.94L100.24 12.69L99.86 12.81L102.97 22.06L103.34 21.94ZM100.05 12.55H99.96V12.95H100.05V12.55ZM99.77 12.69L96.66 21.94L97.04 22.06L100.14 12.81L99.77 12.69ZM96.93 17.64H103.06V17.24H96.93V17.64ZM102.86 17.44V19.13H103.26V17.44H102.86ZM103.06 18.93H96.93V19.33H103.06V18.93ZM97.13 19.13V17.44H96.73V19.13H97.13Z" fill="#5EAB4A" mask="url(#path-18-outside-3_401_1984)" />
</g></svg>