<?xml version="1.0" encoding="UTF-8"?>
<svg xmlns="http://www.w3.org/2000/svg" width="32" height="32" viewBox="0 0 32.000000 32.000000" fill="none"><g transform="translate(-0.000000,-378.000000)">
<mask id="path-56-outside-17_401_1984" maskUnits="userSpaceOnUse" x="9.78" y="381" width="11" height="16" fill="black">
<rect fill="white" x="9.78" y="381" width="11" height="16" />
<path d="M11.14 396V382.91H13.91V393.72H19.52V396H11.14Z" />
</mask>
<path d="M11.14 396V382.91H13.91V393.72H19.52V396H11.14Z" fill="#2A2A2A" />
<path d="M11.14 396H10.14C10.14 396.55 10.59 397 11.14 397V396ZM11.14 382.91V381.91C10.59 381.91 10.14 382.36 10.14 382.91H11.14ZM13.91 382.91H14.91C14.91 382.36 14.46 381.91 13.91 381.91V382.91ZM13.91 393.72H12.91C12.91 394.27 13.36 394.72 13.91 394.72V393.72ZM19.52 393.72H20.52C20.52 393.17 20.07 392.72 19.52 392.72V393.72ZM19.52 396V397C20.07 397 20.52 396.55 20.52 396H19.52ZM12.14 396V382.91H10.14V396H12.14ZM11.14 383.91H13.91V381.91H11.14V383.91ZM12.91 382.91V393.72H14.91V382.91H12.91ZM13.91 394.72H19.52V392.72H13.91V394.72ZM18.52 393.72V396H20.52V393.72H18.52ZM19.52 395H11.14V397H19.52V395Z" fill="#FFFFFE" mask="url(#path-56-outside-17_401_1984)" />
<mask id="path-58-inside-18_401_1984" fill="white">
<path fill-rule="evenodd" clip-rule="evenodd" d="M3.56 397.56C1.59 397.56 0 399.15 0 401.11C0 403.07 1.59 404.67 3.56 404.67H8.89V410H23.11V404.67H28.44C30.41 404.67 32 403.07 32 401.11C32 399.15 30.41 397.56 28.44 397.56H3.56Z" />
</mask>
<path fill-rule="evenodd" clip-rule="evenodd" d="M3.56 397.56C1.59 397.56 0 399.15 0 401.11C0 403.07 1.59 404.67 3.56 404.67H8.89V410H23.11V404.67H28.44C30.41 404.67 32 403.07 32 401.11C32 399.15 30.41 397.56 28.44 397.56H3.56Z" fill="#2A2A2A" />
<path d="M8.89 404.67H9.89V403.67H8.89V404.67ZM8.89 410H7.89V411H8.89V410ZM23.11 410V411H24.11V410H23.11ZM23.11 404.67V403.67H22.11V404.67H23.11ZM1 401.11C1 399.7 2.14 398.56 3.56 398.56V396.56C1.04 396.56 -1 398.6 -1 401.11H1ZM3.56 403.67C2.14 403.67 1 402.52 1 401.11H-1C-1 403.63 1.04 405.67 3.56 405.67V403.67ZM8.89 403.67H3.56V405.67H8.89V403.67ZM9.89 410V404.67H7.89V410H9.89ZM23.11 409H8.89V411H23.11V409ZM22.11 404.67V410H24.11V404.67H22.11ZM28.44 403.67H23.11V405.67H28.44V403.67ZM31 401.11C31 402.52 29.86 403.67 28.44 403.67V405.67C30.96 405.67 33 403.63 33 401.11H31ZM28.44 398.56C29.86 398.56 31 399.7 31 401.11H33C33 398.6 30.96 396.56 28.44 396.56V398.56ZM3.56 398.56H28.44V396.56H3.56V398.56Z" fill="#232323" mask="url(#path-58-inside-18_401_1984)" />
<path d="M23.11 400.22H8.89L16 405.56L23.11 400.22Z" fill="#FFFFFE" />
</g></svg>