<?xml version="1.0" encoding="UTF-8"?>
<svg xmlns="http://www.w3.org/2000/svg" width="32" height="32" viewBox="0 0 32.000000 32.000000" fill="none"><g transform="translate(-42.000000,-378.000000)">
<mask id="path-46-outside-13_401_1984" maskUnits="userSpaceOnUse" x="50.78" y="381" width="13" height="16" fill="black">
<rect fill="white" x="50.78" y="381" width="13" height="16" />
<path d="M52.34 396V382.91H57.51C58.5 382.91 59.34 383.09 60.04 383.44C60.74 383.79 61.28 384.29 61.64 384.93C62.01 385.57 62.2 386.32 62.2 387.19C62.2 388.06 62.01 388.8 61.64 389.43C61.26 390.05 60.72 390.53 60.01 390.86C59.3 391.19 58.44 391.36 57.44 391.36H53.98V389.13H56.99C57.52 389.13 57.96 389.06 58.31 388.92C58.66 388.77 58.92 388.56 59.09 388.27C59.26 387.98 59.35 387.62 59.35 387.19C59.35 386.75 59.26 386.38 59.09 386.09C58.92 385.79 58.65 385.56 58.3 385.41C57.95 385.25 57.51 385.17 56.98 385.17H55.11V396H52.34ZM59.41 390.04L62.67 396H59.61L56.43 390.04H59.41Z" />
</mask>
<path d="M52.34 396V382.91H57.51C58.5 382.91 59.34 383.09 60.04 383.44C60.74 383.79 61.28 384.29 61.64 384.93C62.01 385.57 62.2 386.32 62.2 387.19C62.2 388.06 62.01 388.8 61.64 389.43C61.26 390.05 60.72 390.53 60.01 390.86C59.3 391.19 58.44 391.36 57.44 391.36H53.98V389.13H56.99C57.52 389.13 57.96 389.06 58.31 388.92C58.66 388.77 58.92 388.56 59.09 388.27C59.26 387.98 59.35 387.62 59.35 387.19C59.35 386.75 59.26 386.38 59.09 386.09C58.92 385.79 58.65 385.56 58.3 385.41C57.95 385.25 57.51 385.17 56.98 385.17H55.11V396H52.34ZM59.41 390.04L62.67 396H59.61L56.43 390.04H59.41Z" fill="#2A2A2A" />
<path d="M52.34 396H51.34C51.34 396.55 51.79 397 52.34 397V396ZM52.34 382.91V381.91C51.79 381.91 51.34 382.36 51.34 382.91H52.34ZM60.04 383.44L59.59 384.33L59.59 384.33L60.04 383.44ZM61.64 384.93L60.77 385.42L60.78 385.43L61.64 384.93ZM61.64 389.43L62.49 389.94L62.49 389.94L61.64 389.43ZM60.01 390.86L59.58 389.95L59.58 389.96L60.01 390.86ZM53.98 391.36H52.98C52.98 391.91 53.43 392.36 53.98 392.36V391.36ZM53.98 389.13V388.13C53.43 388.13 52.98 388.58 52.98 389.13H53.98ZM58.31 388.92L58.69 389.84L58.69 389.84L58.31 388.92ZM59.09 388.27L58.23 387.75L58.22 387.76L59.09 388.27ZM59.09 386.09L58.22 386.58L58.22 386.59L59.09 386.09ZM58.3 385.41L57.89 386.32C57.89 386.32 57.9 386.32 57.9 386.33L58.3 385.41ZM55.11 385.17V384.17C54.56 384.17 54.11 384.62 54.11 385.17H55.11ZM55.11 396V397C55.66 397 56.11 396.55 56.11 396H55.11ZM59.41 390.04L60.29 389.56C60.11 389.24 59.78 389.04 59.41 389.04V390.04ZM62.67 396V397C63.02 397 63.35 396.81 63.53 396.51C63.71 396.21 63.71 395.83 63.54 395.52L62.67 396ZM59.61 396L58.73 396.47C58.9 396.8 59.24 397 59.61 397V396ZM56.43 390.04V389.04C56.08 389.04 55.75 389.23 55.57 389.53C55.39 389.83 55.38 390.2 55.55 390.51L56.43 390.04ZM53.34 396V382.91H51.34V396H53.34ZM52.34 383.91H57.51V381.91H52.34V383.91ZM57.51 383.91C58.38 383.91 59.06 384.06 59.59 384.33L60.49 382.55C59.62 382.11 58.61 381.91 57.51 381.91V383.91ZM59.59 384.33C60.13 384.6 60.51 384.96 60.77 385.42L62.51 384.43C62.04 383.61 61.35 382.98 60.48 382.54L59.59 384.33ZM60.78 385.43C61.05 385.89 61.2 386.47 61.2 387.19H63.2C63.2 386.17 62.98 385.24 62.51 384.43L60.78 385.43ZM61.2 387.19C61.2 387.91 61.04 388.47 60.78 388.92L62.49 389.94C62.98 389.13 63.2 388.2 63.2 387.19H61.2ZM60.78 388.91C60.52 389.35 60.13 389.7 59.58 389.95L60.43 391.77C61.31 391.36 62.01 390.75 62.49 389.94L60.78 388.91ZM59.58 389.96C59.04 390.21 58.34 390.36 57.44 390.36V392.36C58.55 392.36 59.56 392.18 60.43 391.77L59.58 389.96ZM57.44 390.36H53.98V392.36H57.44V390.36ZM54.98 391.36V389.13H52.98V391.36H54.98ZM53.98 390.13H56.99V388.13H53.98V390.13ZM56.99 390.13C57.6 390.13 58.18 390.05 58.69 389.84L57.92 387.99C57.73 388.07 57.44 388.13 56.99 388.13V390.13ZM58.69 389.84C59.21 389.62 59.65 389.27 59.95 388.77L58.22 387.76C58.18 387.84 58.1 387.92 57.92 387.99L58.69 389.84ZM59.94 388.78C60.23 388.3 60.35 387.75 60.35 387.19H58.35C58.35 387.48 58.29 387.65 58.23 387.75L59.94 388.78ZM60.35 387.19C60.35 386.62 60.23 386.07 59.95 385.58L58.22 386.59C58.29 386.7 58.35 386.88 58.35 387.19H60.35ZM59.95 385.59C59.66 385.08 59.22 384.72 58.7 384.49L57.9 386.33C58.08 386.4 58.17 386.49 58.22 386.58L59.95 385.59ZM58.71 384.5C58.19 384.26 57.6 384.17 56.98 384.17V386.17C57.42 386.17 57.71 386.24 57.89 386.32L58.71 384.5ZM56.98 384.17H55.11V386.17H56.98V384.17ZM54.11 385.17V396H56.11V385.17H54.11ZM55.11 395H52.34V397H55.11V395ZM58.53 390.52L61.79 396.48L63.54 395.52L60.29 389.56L58.53 390.52ZM62.67 395H59.61V397H62.67V395ZM60.49 395.53L57.31 389.57L55.55 390.51L58.73 396.47L60.49 395.53ZM56.43 391.04H59.41V389.04H56.43V391.04Z" fill="#FFFFFE" mask="url(#path-46-outside-13_401_1984)" />
<mask id="path-48-inside-14_401_1984" fill="white">
<path fill-rule="evenodd" clip-rule="evenodd" d="M45.56 397.56C43.59 397.56 42 399.15 42 401.11C42 403.07 43.59 404.67 45.56 404.67H50.89V410H65.11V404.67H70.44C72.41 404.67 74 403.07 74 401.11C74 399.15 72.41 397.56 70.44 397.56H45.56Z" />
</mask>
<path fill-rule="evenodd" clip-rule="evenodd" d="M45.56 397.56C43.59 397.56 42 399.15 42 401.11C42 403.07 43.59 404.67 45.56 404.67H50.89V410H65.11V404.67H70.44C72.41 404.67 74 403.07 74 401.11C74 399.15 72.41 397.56 70.44 397.56H45.56Z" fill="#2A2A2A" />
<path d="M50.89 404.67H51.89V403.67H50.89V404.67ZM50.89 410H49.89V411H50.89V410ZM65.11 410V411H66.11V410H65.11ZM65.11 404.67V403.67H64.11V404.67H65.11ZM43 401.11C43 399.7 44.14 398.56 45.56 398.56V396.56C43.04 396.56 41 398.6 41 401.11H43ZM45.56 403.67C44.14 403.67 43 402.52 43 401.11H41C41 403.63 43.04 405.67 45.56 405.67V403.67ZM50.89 403.67H45.56V405.67H50.89V403.67ZM51.89 410V404.67H49.89V410H51.89ZM65.11 409H50.89V411H65.11V409ZM64.11 404.67V410H66.11V404.67H64.11ZM70.44 403.67H65.11V405.67H70.44V403.67ZM73 401.11C73 402.52 71.86 403.67 70.44 403.67V405.67C72.96 405.67 75 403.63 75 401.11H73ZM70.44 398.56C71.86 398.56 73 399.7 73 401.11H75C75 398.6 72.96 396.56 70.44 396.56V398.56ZM45.56 398.56H70.44V396.56H45.56V398.56Z" fill="#232323" mask="url(#path-48-inside-14_401_1984)" />
<path d="M65.11 400.22H50.89L58 405.56L65.11 400.22Z" fill="#FFFFFE" />
</g></svg>