<?xml version="1.0" encoding="UTF-8"?>
<svg xmlns="http://www.w3.org/2000/svg" width="32" height="32" viewBox="0 0 32.000000 32.000000" fill="none"><g transform="translate(-0.000000,-84.000000)">
<path d="M0.5 92C0.5 91.17 1.17 90.5 2 90.5H15.29C15.64 90.5 15.97 90.62 16.24 90.83L19.14 93.17C19.58 93.53 20.13 93.72 20.71 93.72H30C30.83 93.72 31.5 94.39 31.5 95.22V102.89C31.5 107.07 28.12 110.45 23.94 110.45H8.06C3.88 110.45 0.5 107.07 0.5 102.89V92Z" fill="#2A2A2A" stroke="#232323" />
<path d="M7.01 108V96.36H9.47V105.97H14.46V108H7.01ZM16.09 108V96.36H20.75C21.6 96.36 22.32 96.49 22.89 96.74C23.46 97 23.89 97.35 24.18 97.8C24.47 98.25 24.61 98.76 24.61 99.35C24.61 99.8 24.52 100.2 24.34 100.55C24.16 100.89 23.91 101.17 23.59 101.39C23.28 101.6 22.92 101.76 22.51 101.85V101.96C22.95 101.98 23.37 102.1 23.75 102.33C24.14 102.57 24.46 102.89 24.7 103.31C24.95 103.72 25.07 104.21 25.07 104.78C25.07 105.4 24.91 105.95 24.61 106.44C24.3 106.92 23.85 107.3 23.26 107.58C22.67 107.86 21.93 108 21.06 108H16.09ZM18.55 105.99H20.56C21.24 105.99 21.74 105.86 22.06 105.6C22.37 105.33 22.53 104.98 22.53 104.54C22.53 104.22 22.45 103.93 22.29 103.69C22.14 103.44 21.92 103.25 21.63 103.11C21.35 102.97 21.01 102.9 20.61 102.9H18.55V105.99ZM18.55 101.23H20.37C20.71 101.23 21.01 101.17 21.27 101.06C21.54 100.94 21.74 100.77 21.9 100.55C22.05 100.33 22.13 100.06 22.13 99.76C22.13 99.34 21.98 99 21.68 98.74C21.38 98.48 20.96 98.35 20.42 98.35H18.55V101.23Z" fill="#FFFFFE" />
</g></svg>