<?xml version="1.0" encoding="UTF-8"?>
<svg xmlns="http://www.w3.org/2000/svg" width="32" height="32" viewBox="0 0 32.000000 32.000000" fill="none"><g transform="translate(-42.000000,-84.000000)">
<path d="M73.5 92C73.5 91.17 72.83 90.5 72 90.5H58.71C58.36 90.5 58.03 90.62 57.76 90.83L54.86 93.17C54.42 93.53 53.87 93.72 53.29 93.72H44C43.17 93.72 42.5 94.39 42.5 95.22V102.89C42.5 107.07 45.88 110.45 50.06 110.45H65.94C70.12 110.45 73.5 107.07 73.5 102.89V92Z" fill="#2A2A2A" stroke="#232323" />
<path d="M48.01 108V96.36H52.6C53.48 96.36 54.23 96.52 54.85 96.84C55.48 97.15 55.95 97.59 56.28 98.16C56.61 98.73 56.77 99.4 56.77 100.17C56.77 100.94 56.61 101.6 56.27 102.16C55.94 102.71 55.46 103.14 54.82 103.43C54.2 103.73 53.43 103.88 52.54 103.88H49.47V101.9H52.14C52.61 101.9 53 101.83 53.31 101.7C53.62 101.58 53.85 101.38 54.01 101.12C54.16 100.87 54.24 100.55 54.24 100.17C54.24 99.78 54.16 99.45 54.01 99.19C53.85 98.92 53.62 98.72 53.31 98.59C53 98.45 52.6 98.38 52.13 98.38H50.47V108H48.01ZM54.3 102.7L57.19 108H54.47L51.64 102.7H54.3ZM58.51 108V96.36H63.17C64.03 96.36 64.74 96.49 65.31 96.74C65.88 97 66.31 97.35 66.6 97.8C66.89 98.25 67.03 98.76 67.03 99.35C67.03 99.8 66.94 100.2 66.76 100.55C66.58 100.89 66.33 101.17 66.01 101.39C65.7 101.6 65.34 101.76 64.93 101.85V101.96C65.38 101.98 65.79 102.1 66.18 102.33C66.57 102.57 66.88 102.89 67.12 103.31C67.37 103.72 67.49 104.21 67.49 104.78C67.49 105.4 67.34 105.95 67.03 106.44C66.73 106.92 66.28 107.3 65.68 107.58C65.09 107.86 64.35 108 63.48 108H58.51ZM60.97 105.99H62.98C63.66 105.99 64.16 105.86 64.48 105.6C64.79 105.33 64.95 104.98 64.95 104.54C64.95 104.22 64.87 103.93 64.72 103.69C64.56 103.44 64.34 103.25 64.05 103.11C63.77 102.97 63.43 102.9 63.03 102.9H60.97V105.99ZM60.97 101.23H62.8C63.13 101.23 63.43 101.17 63.69 101.06C63.96 100.94 64.17 100.77 64.32 100.55C64.47 100.33 64.55 100.06 64.55 99.76C64.55 99.34 64.4 99 64.1 98.74C63.81 98.48 63.39 98.35 62.84 98.35H60.97V101.23Z" fill="#FFFFFE" />
</g></svg>