<?xml version="1.0" encoding="UTF-8"?>
<svg xmlns="http://www.w3.org/2000/svg" width="32" height="32" viewBox="0 0 32.000000 32.000000" fill="none"><g transform="translate(-126.000000,-84.000000)">
<path d="M153.55 87.33C153.75 85.83 152.59 84.5 151.07 84.5H132C130.62 84.5 129.5 85.62 129.5 87V101.83V111C129.5 112.38 130.62 113.5 132 113.5H141.75C146.51 113.5 150.53 109.97 151.16 105.26L153.55 87.33Z" fill="#2A2A2A" stroke="#232323" />
<path d="M132.83 105V94.82H136.65C137.43 94.82 138.09 94.95 138.62 95.23C139.15 95.5 139.55 95.88 139.82 96.37C140.1 96.86 140.24 97.42 140.24 98.07C140.24 98.73 140.1 99.29 139.82 99.77C139.54 100.25 139.14 100.62 138.6 100.88C138.07 101.14 137.41 101.27 136.62 101.27H133.9V99.74H136.38C136.83 99.74 137.21 99.68 137.5 99.55C137.79 99.42 138.01 99.23 138.15 98.99C138.29 98.74 138.36 98.44 138.36 98.07C138.36 97.71 138.29 97.41 138.15 97.15C138 96.89 137.78 96.7 137.49 96.56C137.2 96.43 136.83 96.36 136.37 96.36H134.68V105H132.83ZM138.09 100.39L140.61 105H138.55L136.08 100.39H138.09ZM141.49 96.36V94.82H149.61V96.36H146.47V105H144.63V96.36H141.49Z" fill="#FFFFFE" />
</g></svg>